<svg width="22" height="21" viewBox="0 0 22 21" fill="none" xmlns="http://www.w3.org/2000/svg">
<path d="M9.24909 1.91123C10.1622 1.91123 11.0412 2.04473 11.872 2.29188C12.0045 2.33157 12.1387 2.37486 12.2748 2.42177C12.4252 2.47408 12.5738 2.53001 12.7206 2.58954L12.1155 3.70983C11.2256 3.36527 10.2606 3.17765 9.25088 3.17765H9.24909C8.14622 3.17765 7.09528 3.40315 6.13922 3.81086C5.98346 3.87761 5.82949 3.94796 5.68089 4.02373C4.90745 4.4134 4.20563 4.92574 3.60048 5.53549L3.5969 5.5391C3.39638 5.74115 3.20481 5.95583 3.02757 6.17953C2.84853 6.40503 2.68024 6.63955 2.52448 6.88309C1.7206 8.13868 1.2569 9.6306 1.2569 11.2308V11.2326C1.2569 12.3438 1.48069 13.4028 1.88531 14.3661C1.95156 14.5231 2.02138 14.6782 2.09658 14.828C2.4833 15.6055 2.99176 16.3145 3.59869 16.9242L3.60227 16.9278C3.8028 17.1299 4.01585 17.3229 4.23785 17.5033C4.46165 17.6837 4.6944 17.8533 4.9361 18.0102C6.1804 18.8148 7.66103 19.2821 9.24909 19.2821H9.25088C10.3537 19.2821 11.4047 19.0566 12.3607 18.6489C12.5165 18.5821 12.6705 18.5118 12.8191 18.436C13.5925 18.0463 14.2943 17.534 14.8995 16.9242H14.9013L14.9066 16.9188C15.1072 16.7168 15.2969 16.5039 15.476 16.2802C15.655 16.0547 15.8233 15.8202 15.9791 15.5766C16.7776 14.3246 17.2413 12.8345 17.2413 11.2362L18.4963 11.0413C18.4981 11.1045 18.4981 11.1676 18.4981 11.2308V11.2326C18.4981 12.5188 18.2385 13.7456 17.7712 14.8586C17.696 15.039 17.6137 15.2176 17.5259 15.3944C17.0784 16.2964 16.4893 17.1155 15.7893 17.8208L15.7857 17.8244C15.553 18.059 15.3059 18.2826 15.0499 18.4901C14.7921 18.6994 14.5217 18.896 14.2424 19.0764C12.803 20.0091 11.0896 20.5503 9.25088 20.5503C7.97435 20.5503 6.7569 20.2887 5.65224 19.8179C5.47321 19.7421 5.29596 19.6591 5.1205 19.5707C4.22532 19.1197 3.4125 18.5262 2.71246 17.8208L2.70888 17.8154C2.47614 17.5809 2.25592 17.3337 2.04824 17.074C1.84056 16.8142 1.64541 16.5418 1.46637 16.2603C0.53717 14.8099 6.10352e-05 13.0835 6.10352e-05 11.2308V11.229C6.10352e-05 9.9427 0.259664 8.71777 0.726949 7.60289C0.802144 7.42249 0.884501 7.24389 0.972229 7.0671C1.41982 6.16509 2.00885 5.34607 2.70888 4.6407L2.71246 4.6371C2.94521 4.40257 3.19228 4.18068 3.4483 3.97142C3.70612 3.76215 3.97646 3.56551 4.25576 3.38511C5.697 2.45244 7.41038 1.91123 9.24909 1.91123ZM10.0046 10.8104L15.809 0.0693359L16.5591 6.1687L22.0001 8.94508L10.0046 10.8104ZM9.24909 8.2812H9.25088C9.37978 8.2812 9.5069 8.29022 9.63043 8.30646L8.94472 9.57648C8.82477 9.59813 8.7084 9.63421 8.59918 9.68112C8.56696 9.69555 8.53473 9.70998 8.5025 9.72622C8.34137 9.8074 8.19456 9.91383 8.06744 10.0419L8.06386 10.0455C8.02269 10.087 7.98509 10.1303 7.94749 10.1754C7.90989 10.2223 7.87408 10.271 7.84186 10.3233C7.67535 10.5849 7.57868 10.897 7.57868 11.2308V11.2326C7.57868 11.4653 7.62522 11.6854 7.71116 11.8874C7.72548 11.9217 7.73981 11.9542 7.75592 11.9848C7.83649 12.1472 7.94212 12.2951 8.06923 12.4232L8.07281 12.4268C8.11399 12.4683 8.15696 12.508 8.20172 12.5441C8.24827 12.582 8.29661 12.618 8.34853 12.6505C8.60813 12.8183 8.91787 12.9157 9.24909 12.9157C9.48004 12.9157 9.69847 12.8688 9.89899 12.784C9.933 12.7696 9.96344 12.7552 9.99567 12.7389C10.1568 12.6577 10.3036 12.5513 10.4307 12.4232L10.4343 12.4196C10.4576 12.3962 10.4791 12.3727 10.4988 12.3511C10.5185 12.3294 10.5381 12.3041 10.5578 12.2789L12.0635 12.0444C12.0313 12.1598 11.9919 12.2735 11.9454 12.3817C11.9221 12.4376 11.8952 12.4954 11.8684 12.5513C11.7269 12.8381 11.5408 13.0961 11.3187 13.3198L11.3134 13.3234C11.24 13.3956 11.1648 13.4659 11.0842 13.5309C11.0019 13.5976 10.9177 13.659 10.8282 13.7167C10.3716 14.0107 9.83095 14.1821 9.24909 14.1821C8.84446 14.1821 8.45953 14.0991 8.11041 13.9494C8.05491 13.926 7.99762 13.8989 7.94212 13.8718C7.65745 13.7293 7.40143 13.5417 7.17942 13.318L7.17405 13.3126C7.10244 13.2404 7.03261 13.1629 6.96816 13.0817C6.90192 12.9987 6.84104 12.9139 6.78375 12.8237C6.49192 12.3655 6.32184 11.8189 6.32184 11.2326V11.2308C6.32184 10.8231 6.4042 10.4352 6.5528 10.0834C6.57607 10.0275 6.60293 9.96976 6.62978 9.91383C6.77122 9.6288 6.95742 9.36902 7.17942 9.14713C7.25283 9.07316 7.3316 9.00281 7.41396 8.93606C7.49632 8.86931 7.58047 8.80797 7.66998 8.75025C8.12474 8.45258 8.66722 8.2812 9.24909 8.2812ZM9.24909 5.07006C9.79694 5.07006 10.3269 5.14222 10.83 5.27932C10.9123 5.30097 10.9929 5.32442 11.0735 5.35149C11.1164 5.36592 11.1612 5.38035 11.2042 5.39478L10.5919 6.52951C10.1658 6.40683 9.71458 6.34008 9.24729 6.34008C8.5777 6.34008 7.93854 6.47719 7.35667 6.72434C7.26536 6.76403 7.17226 6.80732 7.07737 6.85423L7.07021 6.85784C6.60293 7.09416 6.1804 7.40445 5.81338 7.77427L5.80979 7.77788C5.68805 7.90055 5.57347 8.03044 5.46425 8.16574C5.35504 8.30285 5.25299 8.44537 5.1581 8.5933C4.67291 9.35459 4.39183 10.262 4.39183 11.2344V11.2362C4.39183 11.9109 4.52789 12.5549 4.77317 13.1412C4.81256 13.2368 4.85553 13.3306 4.90208 13.4226C5.13662 13.8953 5.44635 14.3246 5.81517 14.6963C5.9387 14.8207 6.0694 14.938 6.20367 15.0481C6.33974 15.1581 6.48118 15.2609 6.62799 15.3565C7.38352 15.8418 8.28408 16.125 9.24909 16.125H9.25088C9.92047 16.125 10.5596 15.9879 11.1415 15.7408C11.2364 15.7011 11.3295 15.6578 11.4208 15.6109C11.8899 15.3746 12.316 15.0625 12.6848 14.6909C12.8083 14.5664 12.9265 14.4347 13.0339 14.2994C13.1431 14.1623 13.2452 14.0198 13.3401 13.8718C13.7429 13.2404 14.0043 12.5116 14.0831 11.7269L15.3578 11.5284C15.322 12.2699 15.1573 12.977 14.8852 13.6283C14.835 13.7474 14.7813 13.8664 14.7222 13.9819C14.4268 14.579 14.0365 15.1202 13.5746 15.5856L13.571 15.5893C13.4171 15.7444 13.2541 15.8905 13.0858 16.0294C12.9158 16.1683 12.7367 16.2982 12.5523 16.4173C11.5998 17.0325 10.4665 17.3915 9.25267 17.3915C8.4094 17.3915 7.60374 17.2183 6.87327 16.908C6.75511 16.8575 6.63694 16.8034 6.52236 16.7438C5.92975 16.4462 5.39264 16.0529 4.93073 15.5875L4.92714 15.582C4.77317 15.4269 4.62815 15.2645 4.49209 15.0932C4.35423 14.9218 4.22532 14.7414 4.10716 14.5556C3.49485 13.5958 3.14036 12.4557 3.14036 11.2308V11.229C3.14036 10.3793 3.31224 9.56746 3.62197 8.83143C3.6721 8.71236 3.72581 8.5933 3.78489 8.47784C4.0803 7.88071 4.4706 7.33951 4.93252 6.87407L4.9361 6.87046C5.09007 6.71532 5.2512 6.56919 5.42129 6.43209C5.59137 6.29318 5.77041 6.16329 5.95481 6.04423C6.90192 5.42725 8.03522 5.07006 9.24909 5.07006Z" fill="#EB5757"/>
</svg>
