<svg width="22" height="22" viewBox="0 0 22 22" fill="none" xmlns="http://www.w3.org/2000/svg">
<path d="M10.9561 10.7939C6.37647 10.7939 2.65137 14.519 2.65137 19.0987C2.65137 19.274 2.80475 19.4274 2.98005 19.4274H7.34061C8.06372 20.6326 9.37846 21.4653 10.8685 21.4653C12.3585 21.4653 13.6952 20.6545 14.3964 19.4274H18.9103C19.0856 19.4274 19.239 19.274 19.239 19.0987C19.2609 14.519 15.5358 10.7939 10.9561 10.7939ZM3.33065 18.77C3.44021 16.2282 4.77687 14.0151 6.77089 12.7003V17.3457C6.77089 17.8497 6.85854 18.3099 7.03384 18.77H3.33065ZM10.8685 20.786C8.96212 20.786 7.42826 19.2302 7.42826 17.3457V12.3059C8.48005 11.7581 9.68523 11.4294 10.9561 11.4294C12.1613 11.4294 13.3008 11.7143 14.3307 12.2182V17.3238C14.3307 17.8935 14.1992 18.4194 13.9581 18.8796C13.9362 18.9015 13.9362 18.9234 13.9143 18.9453C13.3227 20.0629 12.1832 20.786 10.8685 20.786ZM14.7251 18.77C14.8785 18.3318 14.988 17.8497 14.988 17.3457V12.5908C17.0697 13.8836 18.494 16.1625 18.6036 18.7481H14.7251V18.77Z" fill="#2F80ED" stroke="#2F80ED" stroke-width="0.5"/>
<path d="M10.8247 9.94788C13.4542 9.94788 15.6016 7.80048 15.6016 5.17099C15.6016 5.06143 15.6016 4.95187 15.5797 4.84231H17.4422C17.6175 4.84231 17.7709 4.68892 17.7709 4.51362C17.7709 4.33833 17.6175 4.18494 17.4422 4.18494H15.492C15.0319 2.03753 13.1036 0.416016 10.8247 0.416016C8.1952 0.416016 6.04779 2.56343 6.04779 5.19291C6.04779 7.80048 8.1952 9.94788 10.8247 9.94788ZM10.8247 1.07339C12.753 1.07339 14.3745 2.41004 14.8127 4.20685H6.83664C7.27488 2.41004 8.8964 1.07339 10.8247 1.07339ZM6.72707 4.86422H14.9004C14.9004 4.97378 14.9223 5.08334 14.9223 5.19291C14.9223 7.44988 13.0817 9.31243 10.8028 9.31243C8.52389 9.31243 6.70516 7.44988 6.70516 5.17099C6.70516 5.06143 6.70516 4.95187 6.72707 4.86422Z" fill="#2F80ED" stroke="#2F80ED" stroke-width="0.5"/>
</svg>
