<svg width="24" height="17" viewBox="0 0 24 17" fill="none" xmlns="http://www.w3.org/2000/svg">
<path d="M9.18872 8.70321C9.07719 8.81476 8.94477 8.90325 8.79903 8.96363C8.6533 9.024 8.49709 9.05507 8.33935 9.05507C8.1816 9.05507 8.0254 9.024 7.87966 8.96363C7.73392 8.90325 7.6015 8.81476 7.48997 8.70321C7.41446 8.63028 7.31333 8.58992 7.20835 8.59084C7.10338 8.59175 7.00296 8.63385 6.92873 8.70808C6.8545 8.78232 6.81239 8.88273 6.81148 8.98771C6.81057 9.09268 6.85092 9.19382 6.92385 9.26933C7.29958 9.64415 7.80863 9.85464 8.33935 9.85464C8.87006 9.85464 9.37912 9.64415 9.75484 9.26933C9.82777 9.19382 9.86813 9.09268 9.86721 8.98771C9.8663 8.88273 9.8242 8.78232 9.74996 8.70808C9.67573 8.63385 9.57532 8.59175 9.47034 8.59084C9.36537 8.58992 9.26423 8.63028 9.18872 8.70321Z" fill="#219653"/>
<path d="M19.0702 1.09582C18.9951 1.02073 18.8933 0.978538 18.7871 0.978516C18.7342 0.978789 18.6819 0.989544 18.6332 1.01016C18.5844 1.03078 18.5403 1.06084 18.5033 1.09863L15.3307 4.30156C15.2561 4.37659 15.2141 4.47815 15.2141 4.58402C15.2141 4.68989 15.2561 4.79145 15.3307 4.86648L15.5766 5.1123L14.922 5.7665H13.859C13.2048 5.75205 12.5561 5.88908 11.9637 6.16687C11.3997 5.90296 10.7847 5.76628 10.162 5.7665H9.09985L8.44525 5.1123L8.69107 4.86648C8.76601 4.79141 8.80809 4.68968 8.80809 4.58362C8.80809 4.47755 8.76601 4.37582 8.69107 4.30076L5.49655 1.09783C5.45954 1.06028 5.41549 1.03042 5.36691 1.00994C5.31834 0.98947 5.2662 0.978789 5.21349 0.978516C5.16085 0.978474 5.10872 0.988814 5.06008 1.00894C5.01144 1.02907 4.96724 1.0586 4.93003 1.09582L0.117623 5.90823C0.080338 5.94542 0.0507566 5.9896 0.030573 6.03824C0.0103893 6.08688 0 6.13903 0 6.19169C0 6.24435 0.0103893 6.29649 0.030573 6.34514C0.0507566 6.39378 0.080338 6.43796 0.117623 6.47515L3.32055 9.66967C3.39562 9.74461 3.49735 9.78669 3.60341 9.78669C3.70948 9.78669 3.81121 9.74461 3.88627 9.66967L4.19856 9.35739L4.59893 9.75775C4.76793 10.6644 5.20762 11.4985 5.86008 12.1503L6.91745 13.2666C6.95462 13.3054 6.9993 13.3363 7.04877 13.3574C7.0392 13.4148 7.03384 13.4727 7.03275 13.5308C7.03525 13.8371 7.15434 14.1309 7.36579 14.3525C7.57725 14.574 7.86518 14.7067 8.171 14.7235C8.18783 15.0185 8.31261 15.297 8.52157 15.5058C8.73053 15.7147 9.00905 15.8394 9.30403 15.8561C9.3212 16.1616 9.45393 16.449 9.67528 16.6602C9.89663 16.8714 10.19 16.9904 10.4959 16.9932H10.5007C10.6573 16.9937 10.8124 16.9631 10.9571 16.9033C11.1017 16.8434 11.2331 16.7554 11.3435 16.6445L11.7214 16.2665C11.8147 16.4811 11.9682 16.6639 12.1634 16.7929C12.3585 16.9219 12.5869 16.9915 12.8209 16.9932H12.8257C12.9823 16.9937 13.1374 16.9631 13.2822 16.9033C13.4269 16.8434 13.5583 16.7555 13.6688 16.6445L18.1565 12.1567C18.8127 11.5029 19.255 10.6652 19.4249 9.75455L19.8253 9.35418L20.1376 9.66647C20.2118 9.7422 20.313 9.78539 20.419 9.78658C20.4718 9.78625 20.5241 9.77547 20.5727 9.75486C20.6214 9.73425 20.6655 9.7042 20.7025 9.66647L23.883 6.47195C23.9579 6.39688 24 6.29515 24 6.18909C24 6.08302 23.9579 5.98129 23.883 5.90623L19.0702 1.09582ZM3.60361 8.8205L0.967201 6.19129L5.21309 1.9474L7.84229 4.58181L3.60361 8.8205ZM6.4326 11.5906C5.86421 11.0243 5.49044 10.2921 5.36523 9.49952C5.35201 9.41613 5.31277 9.33906 5.25312 9.27932L4.76468 8.79087L7.87873 5.67682L8.65023 6.44832C8.7253 6.52341 8.82712 6.56561 8.93329 6.56563H10.1632C10.6218 6.56504 11.0759 6.65567 11.4991 6.83225C11.9223 7.00883 12.3061 7.26783 12.6283 7.59417L14.2994 9.10596C14.3359 9.14237 14.3648 9.1857 14.3844 9.23341C14.404 9.28111 14.4139 9.33224 14.4135 9.38381C14.413 9.49006 14.3707 9.59184 14.2958 9.66719C14.2209 9.74255 14.1194 9.78543 14.0131 9.78658C13.9602 9.78658 13.9078 9.77594 13.859 9.75531C13.8103 9.73468 13.7662 9.70447 13.7293 9.66647L12.2972 8.30282L12.2912 8.29682C12.273 8.28314 12.2538 8.27108 12.2335 8.26078C12.2107 8.24301 12.1862 8.22759 12.1602 8.21474C12.139 8.2088 12.1173 8.20465 12.0954 8.20233C12.0662 8.19336 12.0361 8.18758 12.0057 8.18511C11.9835 8.1876 11.9616 8.19189 11.94 8.19793C11.9114 8.20103 11.8833 8.2072 11.856 8.21634C11.8349 8.22804 11.8148 8.24143 11.7959 8.25638C11.7714 8.26924 11.7483 8.28467 11.7271 8.30242L7.42391 12.6368L6.4326 11.5906ZM18.7695 9.27932C18.7098 9.33906 18.6706 9.41613 18.6574 9.49952C18.5324 10.292 18.1589 11.0242 17.5908 11.5906L13.1027 16.0783C13.0291 16.1516 12.9295 16.1926 12.8257 16.1924C12.7198 16.1913 12.6187 16.1488 12.5438 16.0739C12.469 15.9991 12.4264 15.8979 12.4253 15.7921C12.4248 15.7405 12.4346 15.6893 12.4542 15.6416C12.4738 15.5939 12.5028 15.5505 12.5394 15.5142L12.8004 15.2532C12.8425 15.2099 12.874 15.1576 12.8925 15.1002L13.899 14.0937C13.9373 14.0568 13.9678 14.0126 13.9888 13.9638C14.0097 13.9149 14.0208 13.8624 14.0213 13.8092C14.0217 13.7561 14.0116 13.7033 13.9915 13.6541C13.9713 13.6049 13.9416 13.5602 13.904 13.5226C13.8664 13.4851 13.8217 13.4553 13.7725 13.4352C13.7233 13.4151 13.6706 13.4049 13.6174 13.4054C13.5643 13.4059 13.5117 13.4169 13.4629 13.4379C13.414 13.4589 13.3699 13.4894 13.3329 13.5276L10.7806 16.0799C10.7071 16.1531 10.6076 16.1942 10.5039 16.194C10.3981 16.193 10.2968 16.1505 10.222 16.0756C10.1471 16.0008 10.1046 15.8995 10.1036 15.7937C10.1027 15.7417 10.1123 15.6901 10.1319 15.642C10.1514 15.5938 10.1805 15.5501 10.2173 15.5134L12.77 12.9611C12.8429 12.8856 12.8833 12.7844 12.8824 12.6795C12.8815 12.5745 12.8394 12.4741 12.7651 12.3998C12.6909 12.3256 12.5905 12.2835 12.4855 12.2826C12.3805 12.2817 12.2794 12.322 12.2039 12.395L9.65115 14.9473C9.57758 15.0206 9.47792 15.0616 9.3741 15.0614C9.26827 15.0603 9.1671 15.0177 9.09226 14.9429C9.01742 14.868 8.97488 14.7669 8.97373 14.661C8.97296 14.6091 8.98266 14.5575 9.00227 14.5093C9.02187 14.4612 9.05097 14.4174 9.08783 14.3808L11.631 11.8284C11.7039 11.7529 11.7442 11.6518 11.7433 11.5468C11.7424 11.4419 11.7003 11.3414 11.6261 11.2672C11.5519 11.193 11.4514 11.1509 11.3465 11.15C11.2415 11.149 11.1404 11.1894 11.0648 11.2623L8.51251 13.8151C8.47619 13.8513 8.43304 13.8801 8.38555 13.8996C8.33807 13.9191 8.28719 13.929 8.23585 13.9288C8.12999 13.9277 8.02876 13.8852 7.95391 13.8104C7.87905 13.7355 7.83653 13.6343 7.83549 13.5284C7.83485 13.4763 7.84473 13.4247 7.86455 13.3765C7.88436 13.3284 7.9137 13.2847 7.95079 13.2481L12.0193 9.14599L13.1672 10.2386C13.2776 10.3496 13.409 10.4376 13.5538 10.4975C13.6985 10.5574 13.8537 10.5879 14.0103 10.5873H14.0151C14.3327 10.5848 14.6366 10.4574 14.861 10.2326C15.0853 10.0079 15.2123 9.7038 15.2142 9.38621C15.2148 9.22562 15.1829 9.06657 15.1205 8.91859C15.0581 8.77062 14.9665 8.63676 14.8511 8.52502L13.1804 7.01444C13.0663 6.90188 12.946 6.79575 12.8201 6.69655C13.1585 6.60714 13.5073 6.56311 13.8574 6.56563H15.0873C15.1935 6.56561 15.2953 6.52341 15.3704 6.44832L16.1419 5.67682L19.2579 8.79087L18.7695 9.27932ZM20.419 8.81929L16.1795 4.58181L18.7883 1.9478L23.0322 6.19169L20.419 8.81929Z" fill="#219653"/>
</svg>
