<svg width="19" height="21" viewBox="0 0 19 21" fill="none" xmlns="http://www.w3.org/2000/svg">
<g clip-path="url(#clip0_729_31)">
<path fill-rule="evenodd" clip-rule="evenodd" d="M2.65496 9.49283C1.84959 9.74063 1.50792 10.6105 1.51931 11.5983C1.52419 12.0443 1.60066 12.5126 1.73895 12.9655C1.87725 13.4167 2.07574 13.8456 2.32793 14.2148C2.90064 15.0573 3.75319 15.5717 4.75217 15.2111C4.82701 15.1837 4.90674 15.1906 4.97344 15.2231C4.98971 15.2162 5.00598 15.2111 5.02388 15.2043C5.27281 15.1188 5.50385 15.0453 5.71373 14.9787C5.94802 14.9052 6.1693 14.8385 6.37755 14.7804C6.53863 14.7343 6.70458 14.8351 6.74851 15.0043C6.75176 15.0163 6.75339 15.0282 6.75502 15.0402C6.7843 15.1786 6.81522 15.317 6.8445 15.4555C7.07391 16.5287 7.29519 17.5644 7.5913 18.4052C7.59618 18.4206 7.63523 18.5351 7.67591 18.6496C7.85813 19.1793 8.055 19.745 8.30718 20.0783C8.53008 20.3705 8.83759 20.4577 9.31593 20.0646C9.40542 19.9757 9.49653 19.8937 9.58927 19.81C9.87399 19.5519 10.1603 19.2956 10.2645 18.9093C10.1994 18.8153 10.0741 18.7589 9.94884 18.7025C9.53069 18.5163 9.11255 18.3283 9.22482 17.4054C9.2297 17.3576 9.23621 17.3148 9.24109 17.2721C9.27363 17.0021 9.29152 16.8637 9.27525 16.8039C9.26712 16.7714 9.20367 16.7116 9.07839 16.5902L9.03283 16.5458C8.78552 16.3083 8.69767 15.9682 8.70092 15.6007C8.70417 15.1684 8.83922 14.6933 8.97426 14.3515C9.01656 14.2438 9.1093 14.1737 9.2118 14.1584C12.3389 13.7038 14.2458 14.2746 15.7621 14.7292C15.8272 14.748 15.8923 14.7685 15.9558 14.7873C14.6021 13.321 13.4925 11.0993 12.7326 8.82291C11.9305 6.41837 11.5189 3.9335 11.6263 2.19376C10.3865 4.11807 8.21119 7.17374 3.02592 9.17667C3.02103 9.17838 3.01615 9.18008 3.01127 9.18179L2.9706 9.19717C2.91691 9.21768 2.90877 9.21255 2.90064 9.21939C2.88925 9.22964 2.90064 9.22965 2.87948 9.26553C2.87623 9.27066 2.88599 9.25357 2.82417 9.35611C2.78512 9.42447 2.72329 9.47061 2.65496 9.49283ZM15.5701 9.02628C15.5701 9.81412 14.8347 11.2309 14.3743 11.2582C15.1585 12.8715 16.1217 14.2677 17.2069 15.1017C17.2704 15.1103 17.3289 15.1154 17.3843 15.112C17.49 15.1085 17.5941 15.0778 17.708 15.0026C17.9553 14.7411 18.1115 14.331 18.1913 13.8131C18.4353 12.2169 17.9374 9.71671 17.1028 7.31046C16.2665 4.89908 15.0983 2.6005 14.0066 1.41104C13.6064 0.975254 13.2289 0.701816 12.9019 0.645419C12.8189 0.631748 12.7717 0.62833 12.7489 0.636875C12.7213 0.647129 12.679 0.688144 12.6122 0.758212C12.5797 0.792392 12.5472 0.82999 12.513 0.871005C12.5097 0.881259 12.5049 0.891513 12.5016 0.900058C11.9907 2.00748 12.1567 4.39835 12.8189 6.96182C13.3184 6.71573 15.5701 6.996 15.5701 9.02628ZM17.176 15.7357C17.1109 15.7494 17.041 15.7392 16.9791 15.705C16.9222 15.6947 16.8652 15.6811 16.805 15.6691C16.4113 15.5836 16.0192 15.4657 15.5962 15.3393C14.1628 14.9103 12.3649 14.372 9.46887 14.7616C9.37938 15.0214 9.30454 15.3307 9.30291 15.6059C9.30129 15.8041 9.33708 15.9784 9.43796 16.0758L9.48351 16.1203C9.69828 16.3253 9.80403 16.4262 9.85772 16.6398C9.90328 16.8175 9.8805 16.997 9.83657 17.3524C9.83169 17.3935 9.82681 17.4379 9.8203 17.4857C9.76661 17.9335 9.97487 18.0275 10.1831 18.1198C10.4532 18.2411 10.7249 18.3625 10.8583 18.7504C10.8811 18.8068 10.8892 18.8717 10.8779 18.9367C10.7558 19.5929 10.3686 19.9433 9.97975 20.2936C9.89352 20.3722 9.80729 20.4491 9.72594 20.5294C9.71943 20.5363 9.71292 20.5414 9.70641 20.5482C8.86037 21.2592 8.27953 21.0592 7.83535 20.4765C7.51809 20.0595 7.30495 19.4442 7.10645 18.8683C7.09018 18.8188 7.07229 18.7709 7.02185 18.6256C6.71434 17.7541 6.48819 16.6928 6.2539 15.5956L6.2295 15.4845C6.11235 15.5187 5.99683 15.5546 5.88294 15.5905C5.64703 15.664 5.42087 15.7375 5.20448 15.8109C5.17682 15.8195 5.15892 15.828 5.14428 15.8349C5.00273 15.8947 4.93928 15.9203 4.81237 15.8588C3.56771 16.2399 2.52805 15.6093 1.83169 14.5856C1.54859 14.1601 1.32081 13.6696 1.16462 13.1586C1.00843 12.6476 0.922194 12.1144 0.915686 11.6034C0.90267 10.39 1.34196 9.30655 2.37023 8.92374C2.42067 8.83658 2.44995 8.78873 2.51341 8.73233C2.585 8.6691 2.64357 8.64688 2.76559 8.60074L2.80464 8.58536C2.80952 8.58365 2.8144 8.58194 2.81929 8.58023C8.14123 6.52261 10.1848 3.31827 11.3464 1.49478C11.6718 0.985507 11.9305 0.578769 12.186 0.310459C12.3113 0.178867 12.4072 0.0951267 12.5374 0.0438572C12.6724 -0.00912128 12.8042 -0.0125392 12.9962 0.0199314C13.4615 0.0985447 13.9513 0.438632 14.441 0.971835C15.5897 2.22281 16.8083 4.60855 17.6706 7.09683C18.5346 9.59195 19.0487 12.2084 18.7867 13.914C18.6859 14.5771 18.4679 15.1154 18.1099 15.4777C18.0985 15.4897 18.0839 15.5016 18.0692 15.5119C17.8415 15.6742 17.6267 15.7375 17.4054 15.7477C17.3289 15.7494 17.2525 15.7443 17.176 15.7357Z" fill="#ED3237"/>
</g>
<defs>
<clipPath id="clip0_729_31">
<rect width="17.9394" height="21" fill="white" transform="translate(0.915833)"/>
</clipPath>
</defs>
</svg>
