<svg width="17" height="21" viewBox="0 0 17 21" fill="none" xmlns="http://www.w3.org/2000/svg">
<path d="M16.2539 4.39023L12.2062 0.473745C12.1708 0.439544 12.1283 0.412231 12.081 0.393285C12.0792 0.392547 12.0771 0.392301 12.0751 0.391563C12.0318 0.375077 11.985 0.365234 11.9359 0.365234H0.802476C0.59149 0.365234 0.420715 0.530339 0.420715 0.73432V19.9961C0.420715 20.1999 0.59149 20.3652 0.802476 20.3652H16.0383C16.249 20.3652 16.4201 20.1999 16.4201 19.9961V4.84446C16.4236 4.67222 16.4183 4.54402 16.2539 4.39023ZM12.3177 1.62554L15.1758 4.38827L12.3177 4.42124V1.62554V1.62554ZM15.6565 19.6273H1.18424V1.10365H11.5541V4.79451C11.5541 4.89317 11.5949 4.98766 11.6674 5.05705C11.7399 5.12644 11.8323 5.16039 11.9402 5.16359L15.6565 5.12078C15.6565 5.12078 15.6565 19.6273 15.6565 19.6273Z" fill="#ED3237"/>
<path d="M9.87489 7.21088C9.87489 7.0069 9.70387 6.8418 9.49313 6.8418H6.8768C6.66581 6.8418 6.49504 7.0069 6.49504 7.21088V9.47608H4.26097C4.04999 9.47608 3.87921 9.64119 3.87921 9.84517V12.3746C3.87921 12.5784 4.04999 12.7437 4.26097 12.7437H6.49504V14.798C6.49504 15.0018 6.66581 15.1671 6.8768 15.1671H9.49313C9.70387 15.1671 9.87489 15.0018 9.87489 14.798V12.7437H12.1092C12.3199 12.7437 12.491 12.5784 12.491 12.3746V9.84517C12.491 9.64119 12.3199 9.47608 12.1092 9.47608H9.87489C9.87489 9.47608 9.87489 7.21088 9.87489 7.21088ZM11.7275 10.2143V12.0055H9.49313C9.2824 12.0055 9.11137 12.1709 9.11137 12.3746V14.429H7.25856V12.3746C7.25856 12.1709 7.08778 12.0055 6.8768 12.0055H4.64273V10.2143H6.8768C7.08778 10.2143 7.25856 10.0491 7.25856 9.84517V7.57997H9.11137V9.84517C9.11137 10.0491 9.2824 10.2143 9.49313 10.2143H11.7275Z" fill="#ED3237"/>
</svg>
