<svg width="20" height="20" viewBox="0 0 20 20" fill="none" xmlns="http://www.w3.org/2000/svg">
<path d="M5.59344 8.25781H3.18241C2.96158 8.25781 2.78284 8.41948 2.78284 8.61921V10.7984C2.78284 10.9982 2.96158 11.1598 3.18241 11.1598H5.59344C5.81427 11.1598 5.99301 10.9982 5.99301 10.7984V8.61921C5.99301 8.41972 5.814 8.25781 5.59344 8.25781ZM5.19386 10.4373H3.58198V8.98085H5.19386V10.4373Z" fill="#9B51E0"/>
<path d="M11.2171 8.25781H8.80527C8.58444 8.25781 8.4057 8.41948 8.4057 8.61921V10.7984C8.4057 10.9982 8.58444 11.1598 8.80527 11.1598H11.2171C11.4379 11.1598 11.6167 10.9982 11.6167 10.7984V8.61921C11.6167 8.41972 11.4379 8.25781 11.2171 8.25781ZM10.8175 10.4373H9.20485V8.98085H10.8175V10.4373Z" fill="#9B51E0"/>
<path d="M5.59344 13.2246H3.18241C2.96158 13.2246 2.78284 13.3865 2.78284 13.586V15.7667C2.78284 15.9664 2.96158 16.1281 3.18241 16.1281H5.59344C5.81427 16.1281 5.99301 15.9664 5.99301 15.7667V13.586C5.99301 13.3865 5.814 13.2246 5.59344 13.2246ZM5.19386 15.4053H3.58198V13.9474H5.19386V15.4053Z" fill="#9B51E0"/>
<path d="M11.2171 13.2246H8.80527C8.58444 13.2246 8.4057 13.3865 8.4057 13.586V15.7667C8.4057 15.9664 8.58444 16.1281 8.80527 16.1281H11.2171C11.4379 16.1281 11.6167 15.9664 11.6167 15.7667V13.586C11.6167 13.3865 11.4379 13.2246 11.2171 13.2246ZM10.8175 15.4053H9.20485V13.9474H10.8175V15.4053Z" fill="#9B51E0"/>
<path d="M16.6655 13.2246H14.2555C14.0347 13.2246 13.856 13.3865 13.856 13.586V15.7667C13.856 15.9664 14.0347 16.1281 14.2555 16.1281H16.6655C16.8863 16.1281 17.0651 15.9664 17.0651 15.7667V13.586C17.0651 13.3865 16.8861 13.2246 16.6655 13.2246ZM16.2659 15.4053H14.6551V13.9474H16.2659V15.4053Z" fill="#9B51E0"/>
<path d="M19.5999 1.76916H17.1729V1.35018C17.1729 0.6057 16.5035 0 15.6809 0C14.8578 0 14.1881 0.6057 14.1881 1.35018V1.76916H11.4891V1.35018C11.4891 0.6057 10.8197 0 9.99707 0C9.17341 0 8.50346 0.6057 8.50346 1.35018V1.76916H5.80527V1.35018C5.80527 0.6057 5.13612 0 4.31327 0C3.48961 0 2.81966 0.6057 2.81966 1.35018V1.76916H0.399574C0.178743 1.76916 0 1.93082 0 2.13055V19.4968C0 19.6963 0.178743 19.8582 0.399574 19.8582H19.6004C19.8213 19.8582 20 19.6963 20 19.4968V2.13055C19.9995 1.93082 19.8207 1.76916 19.5999 1.76916ZM14.9869 1.35018C14.9869 1.00396 15.2981 0.722793 15.6806 0.722793C16.0626 0.722793 16.3735 1.0042 16.3735 1.35018V3.19956C16.3735 3.54554 16.0626 3.82695 15.6806 3.82695C15.2981 3.82695 14.9869 3.54554 14.9869 3.19956V1.35018ZM9.9968 0.722552C10.3788 0.722552 10.6897 1.00396 10.6897 1.34994V3.19932C10.6897 3.5453 10.3788 3.82671 9.9968 3.82671C9.61374 3.82671 9.30234 3.5453 9.30234 3.19932V2.17006C9.30394 2.15681 9.30687 2.14404 9.30687 2.13031C9.30687 2.11658 9.30394 2.10381 9.30234 2.09056V1.34994C9.30234 1.00396 9.61401 0.722552 9.9968 0.722552ZM3.61854 1.35018C3.61854 1.00396 3.93021 0.722793 4.313 0.722793C4.69499 0.722793 5.00586 1.0042 5.00586 1.35018V3.19956C5.00586 3.54554 4.69499 3.82695 4.313 3.82695C3.92994 3.82695 3.61854 3.54554 3.61854 3.19956V1.35018ZM19.2003 19.1352H0.798615V2.49171H2.81913V3.19932C2.81913 3.9438 3.48934 4.5495 4.31273 4.5495C5.13532 4.5495 5.80474 3.9438 5.80474 3.19932V2.49171H8.50293V3.19932C8.50293 3.9438 9.17315 4.5495 9.99654 4.5495C10.8191 4.5495 11.4885 3.9438 11.4885 3.19932V2.49171H14.1875V3.19932C14.1875 3.9438 14.8572 4.5495 15.6803 4.5495C16.5029 4.5495 17.1723 3.9438 17.1723 3.19932V2.49171H19.1998V19.1352H19.2003Z" fill="#9B51E0"/>
<path d="M17.1074 7.21278L15.0685 9.48573L14.2179 8.75137C14.0583 8.61356 13.8056 8.61886 13.6529 8.76317C13.5005 8.90773 13.5064 9.13638 13.666 9.27419L14.8298 10.2791C14.9044 10.3434 15.0032 10.3791 15.1058 10.3791C15.1143 10.3791 15.1225 10.3789 15.1311 10.3784C15.2424 10.3721 15.3458 10.3237 15.4161 10.2454L17.728 7.66838C17.8671 7.51347 17.8407 7.28579 17.6694 7.16002C17.4981 7.03401 17.2464 7.05787 17.1074 7.21278Z" fill="#9B51E0"/>
</svg>
