<svg width="26" height="26" viewBox="0 0 26 26" fill="none" xmlns="http://www.w3.org/2000/svg">
<path d="M12.9838 3.20969L7.74191 8.48529L18.2594 8.45154L12.9838 3.20969Z" stroke="#F2994A" stroke-miterlimit="10" stroke-linecap="round" stroke-linejoin="round"/>
<path d="M16.7689 12.2122L9.25647 12.2363L9.26852 15.9926L16.781 15.9685L16.7689 12.2122Z" stroke="#F2994A" stroke-miterlimit="10" stroke-linecap="round" stroke-linejoin="round"/>
<path d="M16.7569 8.45636L9.24445 8.48047L9.2565 12.2367L16.769 12.2126L16.7569 8.45636Z" stroke="#F2994A" stroke-miterlimit="10" stroke-linecap="round" stroke-linejoin="round"/>
<path d="M13.0335 18.9848L13.0239 15.9803L6.26355 16.002L6.28525 22.7623L9.28983 22.7526C9.28308 20.6494 10.9303 18.9916 13.0335 18.9848Z" stroke="#F2994A" stroke-miterlimit="10" stroke-linecap="round" stroke-linejoin="round"/>
<path d="M13.0344 18.9851L13.0248 15.9805L19.7851 15.9588L19.8068 22.7191L16.8022 22.7287C16.7955 20.6255 15.1376 18.9783 13.0344 18.9851Z" stroke="#F2994A" stroke-miterlimit="10" stroke-linecap="round" stroke-linejoin="round"/>
<path d="M6.25151 12.2462L3.24652 12.2559L3.28027 22.7733L6.28526 22.7637L6.25151 12.2462Z" stroke="#F2994A" stroke-miterlimit="10" stroke-linecap="round" stroke-linejoin="round"/>
<path d="M22.7789 12.1925L19.7739 12.2021L19.8077 22.7196L22.8127 22.71L22.7789 12.1925Z" stroke="#F2994A" stroke-miterlimit="10" stroke-linecap="round" stroke-linejoin="round"/>
</svg>
