<svg width="20" height="18" viewBox="0 0 20 18" fill="none" xmlns="http://www.w3.org/2000/svg">
<g clip-path="url(#clip0_722_84)">
<path d="M18.75 0.375H1.25002C0.789783 0.375 0.416687 0.710786 0.416687 1.125V10.875C0.416687 11.2892 0.789783 11.625 1.25002 11.625H18.75C19.2103 11.625 19.5834 11.2892 19.5834 10.875V1.125C19.5834 0.710786 19.2103 0.375 18.75 0.375Z" stroke="#9B51E0" stroke-miterlimit="10" stroke-linecap="round"/>
<path d="M9.58331 11.625V14.1825" stroke="#9B51E0" stroke-miterlimit="10" stroke-linecap="round"/>
<path d="M5.41669 17.6249L8.99419 14.4051C9.15046 14.2645 9.36238 14.1855 9.58335 14.1855C9.80432 14.1855 10.0162 14.2645 10.1725 14.4051L13.75 17.6249" stroke="#9B51E0" stroke-miterlimit="10" stroke-linecap="round"/>
<path d="M0.416687 6.375H5.14169C5.22301 6.37525 5.30263 6.35409 5.37075 6.31411C5.43886 6.27412 5.49249 6.21708 5.52502 6.15L6.26419 4.5975C6.29691 4.52901 6.35157 4.47085 6.4212 4.43045C6.49082 4.39006 6.57224 4.36926 6.65506 4.3707C6.73789 4.37215 6.81835 4.39579 6.88617 4.43859C6.954 4.48139 7.00611 4.54142 7.03585 4.611L8.42752 7.86825C8.45602 7.93514 8.50522 7.99328 8.56928 8.03579C8.63335 8.0783 8.7096 8.10341 8.78902 8.10815C8.86845 8.11288 8.94771 8.09704 9.01745 8.0625C9.08718 8.02796 9.14447 7.97617 9.18252 7.91325L10.91 5.06325C10.9448 5.00573 10.9958 4.95743 11.0578 4.92313C11.1198 4.88884 11.1906 4.86976 11.2634 4.86778C11.3361 4.86581 11.4082 4.88102 11.4723 4.91189C11.5365 4.94276 11.5906 4.98822 11.6292 5.04375L12.9225 6.9075C12.9624 6.96515 13.0189 7.01198 13.086 7.04298C13.1532 7.07399 13.2284 7.088 13.3037 7.08354C13.379 7.07907 13.4515 7.05629 13.5135 7.01763C13.5755 6.97896 13.6247 6.92586 13.6559 6.864L15.4167 3.375" stroke="#9B51E0" stroke-miterlimit="10" stroke-linecap="round"/>
</g>
<defs>
<clipPath id="clip0_722_84">
<rect width="20" height="18" fill="white"/>
</clipPath>
</defs>
</svg>
