<svg width="22" height="22" viewBox="0 0 22 22" fill="none" xmlns="http://www.w3.org/2000/svg">
<path d="M21.6562 6.875C21.6562 4.411 19.6515 2.40625 17.1875 2.40625C15.0789 2.40625 13.311 3.87612 12.8435 5.84375H2.0625C1.11478 5.84375 0.34375 6.61478 0.34375 7.5625V17.875C0.34375 18.8227 1.11478 19.5938 2.0625 19.5938H17.875C18.8227 19.5938 19.5938 18.8227 19.5938 17.875V10.6346C20.8319 9.83916 21.6562 8.45281 21.6562 6.875ZM2.40625 14.9236L3.37494 13.9549C4.17244 13.1577 5.23222 12.7188 6.35938 12.7188C7.48653 12.7188 8.54631 13.1577 9.34381 13.9549C10.7635 15.3746 12.6507 16.1562 14.6585 16.1562H17.5312V17.5312H2.40625V14.9236ZM10.5315 14.0724L10.7281 13.9088C11.6487 13.1412 12.8153 12.7188 14.0143 12.7188C14.9064 12.7188 15.7871 12.9528 16.5612 13.3952L17.5312 13.9494V15.4688H14.6585C13.1467 15.4688 11.7136 14.9741 10.5315 14.0724ZM17.5312 13.1577L16.9022 12.7982C16.0242 12.2963 15.0257 12.0312 14.0143 12.0312C12.6552 12.0312 11.3317 12.5104 10.2881 13.3805L9.99866 13.6218C9.94331 13.5699 9.88419 13.5228 9.82987 13.4688C8.90278 12.5417 7.67009 12.0312 6.35938 12.0312C5.04866 12.0312 3.81597 12.5417 2.88888 13.4688L2.40625 13.9514V7.90625H12.8435C13.311 9.87388 15.0789 11.3438 17.1875 11.3438C17.3037 11.3438 17.4175 11.3352 17.5312 11.3262V13.1577ZM18.9062 17.875C18.9062 18.4436 18.4436 18.9062 17.875 18.9062H2.0625C1.49394 18.9062 1.03125 18.4436 1.03125 17.875V7.5625C1.03125 6.99394 1.49394 6.53125 2.0625 6.53125H12.7363C12.7273 6.64503 12.7188 6.75881 12.7188 6.875C12.7188 6.99119 12.7273 7.10497 12.7363 7.21875H2.0625C1.87241 7.21875 1.71875 7.37241 1.71875 7.5625V17.875C1.71875 18.0651 1.87241 18.2188 2.0625 18.2188H17.875C18.0651 18.2188 18.2188 18.0651 18.2188 17.875V11.219C18.4552 11.1629 18.6859 11.0914 18.9062 10.999V17.875ZM17.1875 10.6562C15.1027 10.6562 13.4062 8.95984 13.4062 6.875C13.4062 4.79016 15.1027 3.09375 17.1875 3.09375C19.2723 3.09375 20.9688 4.79016 20.9688 6.875C20.9688 8.95984 19.2723 10.6562 17.1875 10.6562Z" fill="#2F80ED"/>
<path d="M15.4688 6.1875C15.6585 6.1875 15.8125 6.3415 15.8125 6.53125H16.5C16.5 5.96269 16.0373 5.5 15.4688 5.5C14.9002 5.5 14.4375 5.96269 14.4375 6.53125V7.5625C14.4375 8.13106 14.9002 8.59375 15.4688 8.59375C16.0373 8.59375 16.5 8.13106 16.5 7.5625V7.21875C16.5 7.02866 16.3463 6.875 16.1562 6.875H15.4688V7.5625H15.8125C15.8125 7.75225 15.6585 7.90625 15.4688 7.90625C15.279 7.90625 15.125 7.75225 15.125 7.5625V6.53125C15.125 6.3415 15.279 6.1875 15.4688 6.1875Z" fill="#2F80ED"/>
<path d="M17.5312 5.5H16.8438V8.59375H17.5312V5.5Z" fill="#2F80ED"/>
<path d="M17.875 5.84375V8.59375H18.5625V7.5625H19.5938V6.875H18.5625V6.1875H19.5938V5.5H18.2188C18.0287 5.5 17.875 5.65366 17.875 5.84375Z" fill="#2F80ED"/>
<path d="M8.25 8.59375C7.49169 8.59375 6.875 9.21044 6.875 9.96875C6.875 10.7271 7.49169 11.3438 8.25 11.3438C9.00831 11.3438 9.625 10.7271 9.625 9.96875C9.625 9.21044 9.00831 8.59375 8.25 8.59375ZM8.25 10.6562C7.87084 10.6562 7.5625 10.3479 7.5625 9.96875C7.5625 9.58959 7.87084 9.28125 8.25 9.28125C8.62916 9.28125 8.9375 9.58959 8.9375 9.96875C8.9375 10.3479 8.62916 10.6562 8.25 10.6562Z" fill="#2F80ED"/>
</svg>
