<svg width="22" height="22" viewBox="0 0 22 22" fill="none" xmlns="http://www.w3.org/2000/svg">
<path d="M1.40206 12.137H1.4401C1.50016 12.1321 1.55866 12.1154 1.61226 12.0878C1.66585 12.0603 1.71349 12.0225 1.75244 11.9764C1.79139 11.9305 1.8209 11.8773 1.83926 11.8199C1.85763 11.7625 1.8645 11.702 1.85948 11.642C1.84206 11.4293 1.83335 11.2171 1.83335 11.0003C1.83614 8.57001 2.80281 6.24008 4.52129 4.5216C6.23977 2.80312 8.56971 1.83645 11 1.83366C11.2168 1.83366 11.429 1.84237 11.6417 1.85978C11.7017 1.86472 11.7621 1.85779 11.8194 1.83938C11.8768 1.82098 11.9299 1.79146 11.9758 1.75252C12.0217 1.71358 12.0595 1.66597 12.087 1.61242C12.1146 1.55887 12.1313 1.50042 12.1362 1.44041C12.1412 1.3804 12.1342 1.32001 12.1158 1.26268C12.0974 1.20535 12.0679 1.1522 12.029 1.10628C11.99 1.06036 11.9424 1.02256 11.8889 0.995033C11.8353 0.96751 11.7768 0.950803 11.7169 0.945867C11.479 0.926617 11.2416 0.916992 11 0.916992C8.3267 0.920026 5.7637 1.98335 3.87338 3.87368C1.98304 5.764 0.919721 8.327 0.916687 11.0003C0.916687 11.2419 0.926312 11.4793 0.945562 11.7162C0.95499 11.8309 1.00717 11.9378 1.09172 12.0157C1.17629 12.0936 1.28706 12.1369 1.40206 12.137Z" fill="#56CCF2"/>
<path d="M20.5599 9.86511C20.4998 9.87002 20.4414 9.8867 20.3878 9.91425C20.3343 9.94175 20.2867 9.97956 20.2477 10.0255C20.2088 10.0714 20.1792 10.1246 20.1609 10.1819C20.1425 10.2392 20.1356 10.2996 20.1405 10.3597C20.1579 10.5714 20.1666 10.7836 20.1666 11.0013C20.1636 13.4314 19.1968 15.7612 17.4784 17.4794C15.7599 19.1977 13.4301 20.1643 11 20.1671C10.7832 20.1671 10.571 20.1584 10.3583 20.1409C10.2368 20.131 10.1162 20.1697 10.0232 20.2486C9.93022 20.3275 9.87233 20.4401 9.86239 20.5617C9.85239 20.6832 9.89112 20.8038 9.97005 20.8968C10.049 20.9898 10.1616 21.0476 10.2831 21.0576C10.5201 21.0764 10.7575 21.086 10.9991 21.086C13.6729 21.0832 16.2365 20.0197 18.1271 18.1289C20.0177 16.238 21.0809 13.6743 21.0833 11.0004C21.0833 10.7589 21.0737 10.5214 21.0544 10.2845C21.0499 10.2243 21.0335 10.1656 21.0061 10.1119C20.9788 10.0581 20.9409 10.0103 20.8949 9.97131C20.8489 9.93226 20.7956 9.90279 20.7381 9.88455C20.6806 9.8663 20.62 9.8597 20.5599 9.86511Z" fill="#56CCF2"/>
<path d="M11 19.2504C12.1709 19.2484 13.3281 18.9981 14.3953 18.5162C15.4624 18.0343 16.4153 17.3317 17.1911 16.4546C17.203 16.4417 17.2139 16.4279 17.2237 16.4134C18.135 15.3704 18.7675 14.1138 19.0622 12.7605C19.3569 11.4072 19.3041 10.0014 18.909 8.67394C19.4767 8.37006 19.9655 7.93744 20.336 7.41077C20.7066 6.8841 20.9487 6.278 21.043 5.64096C21.1372 5.00392 21.0811 4.35368 20.8789 3.74226C20.6768 3.13084 20.3342 2.57523 19.8788 2.11994C19.4234 1.66464 18.8678 1.32228 18.2563 1.12029C17.6448 0.918295 16.9946 0.862269 16.3575 0.956699C15.7205 1.05112 15.1145 1.29338 14.5879 1.66408C14.0613 2.03477 13.6288 2.5236 13.3251 3.09143C11.4558 2.53438 9.44902 2.66295 7.66605 3.45397C6.2031 4.09966 4.95946 5.15683 4.08663 6.49667C3.21378 7.83656 2.74937 9.40131 2.74997 11.0004C2.75077 11.7879 2.86563 12.5711 3.09097 13.3256C2.52342 13.6295 2.03491 14.0622 1.66452 14.5888C1.29414 15.1154 1.05216 15.7214 0.957966 16.3583C0.863765 16.9952 0.919961 17.6453 1.12204 18.2566C1.32413 18.8679 1.6665 19.4234 2.12176 19.8786C2.57701 20.3339 3.13251 20.6763 3.74381 20.8783C4.3551 21.0804 5.0052 21.1366 5.6421 21.0424C6.279 20.9482 6.88501 20.7063 7.41163 20.3359C7.93826 19.9655 8.37088 19.477 8.67485 18.9094C9.42935 19.1348 10.2125 19.2497 11 19.2504ZM18.3333 11.0004C18.3324 12.4874 17.8784 13.9388 17.0316 15.1612L16.698 14.0456C16.63 13.8329 16.5127 13.6392 16.3556 13.4805L15.6058 12.7352C15.5399 12.6707 15.4941 12.5886 15.4738 12.4987L15.2166 11.1787C15.1618 10.9127 15.03 10.6687 14.8376 10.477L14.454 10.0984C14.3788 10.023 14.3317 9.92404 14.3207 9.81808C14.3097 9.71215 14.3354 9.60564 14.3935 9.51635C14.4425 9.44394 14.5113 9.3871 14.5916 9.3525C14.6719 9.3179 14.7605 9.30699 14.8468 9.32111L16.1759 9.54615C16.4858 9.59597 16.8033 9.53803 17.0756 9.38206L17.5303 9.12265C17.7076 9.09822 17.883 9.0621 18.0556 9.01448C18.2397 9.66041 18.3331 10.3288 18.3333 11.0004ZM16.9583 5.38585C16.7997 5.38585 16.6446 5.33883 16.5127 5.25069C16.3808 5.16255 16.278 5.03729 16.2173 4.89072C16.1566 4.74414 16.1407 4.58288 16.1716 4.42729C16.2026 4.2717 16.279 4.12878 16.3912 4.01661C16.5033 3.90443 16.6462 3.82804 16.8018 3.7971C16.9574 3.76615 17.1187 3.78203 17.2652 3.84274C17.4118 3.90345 17.5371 4.00625 17.6252 4.13815C17.7134 4.27006 17.7604 4.42513 17.7604 4.58377C17.7602 4.79644 17.6756 5.0003 17.5252 5.15064C17.3748 5.30102 17.171 5.38563 16.9583 5.38585ZM16.9583 6.4171C17.3519 6.41903 17.7344 6.54755 18.0493 6.78368C18.3642 7.01986 18.5948 7.3511 18.7068 7.7284C18.1873 8.06898 17.5795 8.25039 16.9583 8.25039C16.3371 8.25039 15.7293 8.06898 15.2098 7.7284C15.3218 7.3511 15.5524 7.01986 15.8673 6.78368C16.1822 6.54755 16.5647 6.41903 16.9583 6.4171ZM16.9583 1.83377C17.5665 1.834 18.162 2.00708 18.6756 2.33283C19.1891 2.65858 19.5995 3.12359 19.859 3.67366C20.1183 4.22372 20.216 4.83618 20.1407 5.43966C20.0653 6.04315 19.82 6.61277 19.4333 7.08215C19.1686 6.52568 18.7252 6.0739 18.1738 5.79881C18.4144 5.55851 18.5783 5.2523 18.6448 4.91881C18.7113 4.58533 18.6774 4.23965 18.5473 3.92547C18.4173 3.61128 18.197 3.34273 17.9143 3.15378C17.6316 2.96482 17.2993 2.86396 16.9592 2.86396C16.6192 2.86396 16.2868 2.96482 16.0041 3.15378C15.7214 3.34273 15.5011 3.61128 15.3711 3.92547C15.2411 4.23965 15.2072 4.58533 15.2737 4.91881C15.3402 5.2523 15.5041 5.55851 15.7446 5.79881C15.1932 6.0739 14.7498 6.52568 14.4851 7.08215C14.0985 6.61286 13.8532 6.04343 13.7778 5.44012C13.7023 4.83682 13.7999 4.22449 14.0591 3.67449C14.3183 3.12449 14.7284 2.65945 15.2417 2.33356C15.755 2.00768 16.3503 1.83434 16.9583 1.83377ZM12.9855 3.9476C12.756 4.76623 12.7872 5.63597 13.0746 6.43608C13.3621 7.23615 13.8916 7.92686 14.5896 8.41223C14.3956 8.43831 14.2093 8.5055 14.0433 8.60936C13.8773 8.71322 13.7354 8.85136 13.6271 9.01448C13.4542 9.27953 13.3775 9.59592 13.4098 9.91075C13.4421 10.2255 13.5814 10.5198 13.8045 10.7442L14.1923 11.1274C14.2558 11.1899 14.2998 11.2695 14.3188 11.3566L14.5759 12.6766C14.6314 12.9417 14.7628 13.185 14.954 13.3769L15.7093 14.1281C15.7611 14.1809 15.8002 14.2449 15.8235 14.3151L16.3341 16.0229C15.6483 16.7499 14.8217 17.3297 13.9047 17.727C12.9877 18.1243 11.9994 18.3307 11 18.3338C10.3283 18.3335 9.65994 18.2398 9.01401 18.0556C9.0933 17.7677 9.14079 17.472 9.15564 17.1737C9.27361 17.2088 9.39599 17.2269 9.5191 17.2274C9.77732 17.2274 10.0294 17.1484 10.2414 17.0009L10.499 16.8291C10.6801 16.7109 10.8287 16.5493 10.9315 16.359C11.0342 16.1688 11.0877 15.9558 11.0871 15.7396V14.3234C11.0861 14.2715 11.0955 14.22 11.1148 14.172C11.1341 14.1238 11.1629 14.0801 11.1993 14.0433L12.0028 13.2463C12.1984 13.0519 12.3274 12.8007 12.3716 12.5285C12.4157 12.2564 12.3726 11.9772 12.2485 11.731L11.8648 10.9693C11.7745 10.7917 11.645 10.6369 11.4863 10.5164L10.4669 9.74919C10.3189 9.63951 10.1497 9.56182 9.97001 9.52103C9.79034 9.48024 9.60416 9.47726 9.4233 9.51223L8.50985 9.69877C8.4279 9.71495 8.34297 9.70519 8.26679 9.67086C8.19066 9.63653 8.12709 9.57928 8.08497 9.50719L8.06022 9.47648C8.017 9.41089 7.99376 9.33412 7.9933 9.25556C7.99408 9.15271 8.03465 9.05413 8.10651 8.98056C8.22843 8.85865 8.32491 8.71372 8.39045 8.55427C8.45599 8.39481 8.48927 8.22395 8.4883 8.05152V7.6436C8.48977 7.53915 8.53244 7.43951 8.60701 7.36631L9.31743 6.65085C9.46726 6.50666 9.57932 6.32787 9.64376 6.13019L9.74826 5.80935C9.83947 5.54402 9.84204 5.25624 9.7556 4.98935C9.66915 4.72242 9.49833 4.49083 9.26885 4.32939L8.8206 4.00856C10.1742 3.58891 11.6201 3.56775 12.9855 3.9476ZM7.80905 4.40593L8.7381 5.0719C8.80648 5.12121 8.8569 5.19148 8.88174 5.27205C8.90653 5.35263 8.90438 5.43907 8.8756 5.51831L8.7711 5.83915C8.75249 5.89708 8.71935 5.94933 8.67485 5.99085L7.95572 6.7141C7.83353 6.83506 7.7365 6.97907 7.67027 7.1377C7.60404 7.29637 7.5699 7.4666 7.5698 7.63856V8.04648C7.57072 8.0985 7.56119 8.1502 7.54175 8.19846C7.52227 8.24673 7.49335 8.29059 7.4566 8.32744C7.21272 8.57338 7.07554 8.90553 7.0748 9.2519C7.07645 9.51878 7.15785 9.77912 7.30855 9.99944L7.33055 10.026C7.473 10.2462 7.67843 10.4184 7.92002 10.5202C8.16165 10.622 8.42831 10.6489 8.68539 10.5971L9.60205 10.4096C9.65669 10.3992 9.71288 10.4003 9.7671 10.4127C9.82132 10.4252 9.87233 10.4488 9.91693 10.4821L10.9376 11.2498C10.9837 11.2863 11.0213 11.3324 11.0476 11.385L11.429 12.1426C11.466 12.2164 11.4787 12.3 11.4652 12.3814C11.4518 12.4628 11.413 12.5379 11.3543 12.5959L10.5508 13.3943C10.429 13.5163 10.3326 13.6612 10.2671 13.8207C10.2017 13.9801 10.1685 14.151 10.1695 14.3234V15.7396C10.1697 15.8041 10.1536 15.8677 10.1228 15.9244C10.0919 15.9811 10.0473 16.0292 9.99301 16.0641L9.72489 16.2429C9.66187 16.2868 9.5867 16.31 9.50988 16.3092C9.43307 16.3084 9.35841 16.2836 9.29635 16.2383L9.0713 16.0884C9.02084 15.8534 8.94966 15.6233 8.85864 15.4009V14.7954C8.86006 14.5803 8.80776 14.3682 8.70652 14.1784C8.60527 13.9885 8.45828 13.827 8.27885 13.7083L7.91768 13.4676C7.86428 13.4315 7.8206 13.3828 7.79049 13.3258C7.76038 13.2688 7.7447 13.2053 7.74489 13.1409V11.7246C7.74553 11.5529 7.71216 11.3828 7.64662 11.2241C7.58108 11.0654 7.48469 10.9213 7.3631 10.8001L6.63893 10.076C6.49634 9.93266 6.32254 9.82426 6.1311 9.75927L5.60722 9.58327C5.54965 9.56476 5.49745 9.53249 5.45515 9.48931C5.4128 9.44609 5.38163 9.39325 5.3643 9.33531L5.23918 8.96865C5.18656 8.80415 5.1014 8.65194 4.9887 8.52108C4.87604 8.39018 4.73818 8.28335 4.5833 8.2069L4.29226 8.0616C4.99493 6.46555 6.24114 5.17062 7.80905 4.40731V4.40593ZM3.66664 11.0004C3.66779 10.2981 3.77013 9.59963 3.97051 8.92648L4.17218 9.02686C4.21898 9.04959 4.26065 9.08163 4.29462 9.12104C4.32859 9.16046 4.35415 9.20638 4.36972 9.25602L4.4953 9.62269C4.55747 9.81643 4.66466 9.9927 4.80803 10.137C4.95144 10.2814 5.12698 10.3898 5.3203 10.4532L5.8396 10.6278C5.89638 10.6478 5.94795 10.6804 5.99039 10.7231L6.71455 11.4473C6.75072 11.4833 6.77936 11.5262 6.7988 11.5734C6.81828 11.6207 6.82808 11.6713 6.82776 11.7223V13.1386C6.82776 13.1771 6.8383 13.2133 6.84151 13.2513C5.9419 12.8065 4.90923 12.7113 3.94347 12.9841C3.75989 12.3389 3.66672 11.6713 3.66664 11.0004ZM3.2931 19.6451C3.40345 19.2668 3.63354 18.9344 3.94881 18.698C4.26409 18.4615 4.64756 18.3337 5.04164 18.3337C5.43571 18.3337 5.8192 18.4615 6.13444 18.698C6.44973 18.9344 6.67981 19.2668 6.79018 19.6451C6.27061 19.9857 5.66286 20.1671 5.04164 20.1671C4.42039 20.1671 3.81267 19.9857 3.2931 19.6451ZM5.04164 16.9753C4.88301 16.9753 4.72791 16.9282 4.59605 16.8401C4.46412 16.752 4.36132 16.6267 4.30061 16.4801C4.2399 16.3336 4.22402 16.1723 4.25496 16.0167C4.28591 15.8611 4.36231 15.7182 4.47448 15.606C4.58665 15.4938 4.72956 15.4174 4.88516 15.3865C5.04077 15.3556 5.20201 15.3715 5.34858 15.4322C5.49516 15.4929 5.62042 15.5957 5.70856 15.7276C5.7967 15.8595 5.84372 16.0146 5.84372 16.1732C5.84349 16.3859 5.75888 16.5897 5.60855 16.7401C5.45817 16.8904 5.2543 16.975 5.04164 16.9753ZM7.51664 18.9988C7.21263 18.353 6.67065 17.8498 6.00414 17.5945C6.30856 17.3881 6.53878 17.0896 6.66093 16.7427C6.78312 16.3958 6.79082 16.019 6.68288 15.6674C6.57495 15.3158 6.3571 15.0081 6.06138 14.7895C5.76562 14.5709 5.40757 14.453 5.0398 14.453C4.67204 14.453 4.31398 14.5709 4.01823 14.7895C3.72249 15.0081 3.50464 15.3158 3.39673 15.6674C3.28881 16.019 3.2965 16.3958 3.41867 16.7427C3.54084 17.0896 3.77105 17.3881 4.07547 17.5945C3.41033 17.8506 2.86979 18.3537 2.56664 18.9988C2.17948 18.5294 1.93378 17.9597 1.85817 17.356C1.78257 16.7522 1.88018 16.1395 2.13963 15.5892C2.39909 15.0388 2.80967 14.5736 3.3235 14.2478C3.83733 13.9219 4.43321 13.749 5.04164 13.749C5.65007 13.749 6.24595 13.9219 6.75979 14.2478C7.27358 14.5736 7.6842 15.0388 7.94362 15.5892C8.20308 16.1395 8.30071 16.7522 8.22508 17.356C8.1495 17.9597 7.90379 18.5294 7.51664 18.9988Z" fill="#56CCF2"/>
</svg>
