<svg width="19" height="19" viewBox="0 0 19 19" fill="none" xmlns="http://www.w3.org/2000/svg">
<path d="M7.75714 10.7881L8.75833 12.1232L8.00728 18.6181H0.826355C0.826355 18.6181 0.877 15.8059 1.16279 14.1387C1.20995 13.8633 1.32132 13.6029 1.48787 13.3785C1.65443 13.1542 1.87149 12.9722 2.12146 12.8474C3.78865 12.0163 7.44697 10.7881 7.44697 10.7881H7.75714Z" fill="#F2C94C"/>
<path d="M18.1736 18.6181H11.1803L10.2416 12.1238L11.2428 10.7881H11.5524C11.5524 10.7881 15.2113 12.0163 16.8785 12.8474C17.1284 12.9723 17.3454 13.1543 17.512 13.3787C17.6785 13.603 17.7899 13.8634 17.8372 14.1387C18.123 15.8059 18.1736 18.6181 18.1736 18.6181Z" fill="#F2C94C"/>
<path d="M9.50001 9.59291C8.7342 9.59292 7.99223 9.32651 7.40132 8.83938C6.81041 8.35224 6.40736 7.67472 6.26127 6.92297L5.75662 4.32609C5.68984 3.83457 5.72903 3.33444 5.87155 2.85932C6.01407 2.38419 6.25662 1.94507 6.58291 1.57145C6.9092 1.19783 7.31167 0.898366 7.76329 0.69318C8.2149 0.487993 8.7052 0.381835 9.20124 0.381836H9.79878C10.2948 0.381835 10.7851 0.487993 11.2367 0.693179C11.6884 0.898366 12.0908 1.19783 12.4171 1.57145C12.7434 1.94507 12.986 2.38419 13.1285 2.85932C13.271 3.33444 13.3102 3.83457 13.2434 4.32609L12.7388 6.92297C12.5927 7.67472 12.1896 8.35224 11.5987 8.83938C11.0078 9.32651 10.2658 9.59292 9.50001 9.59291Z" fill="#F2C94C"/>
</svg>
