<svg width="22" height="22" viewBox="0 0 22 22" fill="none" xmlns="http://www.w3.org/2000/svg">
<path fill-rule="evenodd" clip-rule="evenodd" d="M11 3.66634C10.4937 3.66634 10.0833 4.07675 10.0833 4.58301C10.0833 4.81154 10.1657 5.01849 10.3037 5.17927C10.4732 5.37685 10.7218 5.49967 11 5.49967C11.2782 5.49967 11.5268 5.37685 11.6963 5.17927C11.8343 5.01849 11.9167 4.81154 11.9167 4.58301C11.9167 4.07675 11.5063 3.66634 11 3.66634ZM8.25 4.58301C8.25 3.06423 9.48118 1.83301 11 1.83301C12.5188 1.83301 13.75 3.06423 13.75 4.58301C13.75 4.93226 13.6846 5.26683 13.5655 5.57469L17.7557 9.16634H19.25C20.7688 9.16634 22 10.3975 22 11.9163V17.4163C22 18.9352 20.7688 20.1663 19.25 20.1663H2.75C1.23121 20.1663 0 18.9352 0 17.4163V11.9163C0 10.3975 1.23122 9.16634 2.75 9.16634H4.24424L8.43451 5.57469C8.31541 5.26683 8.25 4.93226 8.25 4.58301ZM9.62784 6.9665L7.06132 9.16634H14.9386L12.3722 6.9665C11.9685 7.19934 11.4997 7.33301 11 7.33301C10.5003 7.33301 10.0315 7.19934 9.62784 6.9665ZM17.4107 10.9997H4.58929C4.5856 10.9997 4.58191 10.9997 4.57823 10.9997H2.75C2.24374 10.9997 1.83333 11.4101 1.83333 11.9163V17.4163C1.83333 17.9226 2.24374 18.333 2.75 18.333H19.25C19.7563 18.333 20.1667 17.9226 20.1667 17.4163V11.9163C20.1667 11.4101 19.7563 10.9997 19.25 10.9997H17.4218C17.418 10.9997 17.4144 10.9997 17.4107 10.9997Z" fill="#BB6BD9"/>
</svg>
