<svg width="23" height="19" viewBox="0 0 23 19" fill="none" xmlns="http://www.w3.org/2000/svg">
<path d="M0.82351 0.5625H22.1765C22.3664 0.5625 22.5217 0.717857 22.5217 0.907738V18.092C22.5217 18.2818 22.3664 18.4372 22.1765 18.4372H0.82351C0.633629 18.4372 0.478271 18.2818 0.478271 18.092V0.907738C0.478271 0.717857 0.633629 0.5625 0.82351 0.5625ZM21.8313 1.25298H1.16875V17.7467H21.8313V1.25298Z" fill="#27AE60"/>
<path d="M0.82351 4.14453C0.633629 4.14453 0.478271 4.29989 0.478271 4.48977C0.478271 4.67965 0.633629 4.83501 0.82351 4.83501H22.1765C22.3664 4.83501 22.5217 4.67965 22.5217 4.48977C22.5217 4.29989 22.3664 4.14453 22.1765 4.14453H0.82351Z" fill="#27AE60"/>
<path d="M9.48464 2.24512C9.29476 2.24512 9.1394 2.40047 9.1394 2.59036C9.1394 2.78024 9.29476 2.9356 9.48464 2.9356H10.8052C10.9951 2.9356 11.1504 2.78024 11.1504 2.59036C11.1504 2.40047 10.9951 2.24512 10.8052 2.24512H9.48464Z" fill="#27AE60"/>
<path d="M6.26962 2.24512C6.07973 2.24512 5.92438 2.40047 5.92438 2.59036C5.92438 2.78024 6.07973 2.9356 6.26962 2.9356H7.59015C7.78003 2.9356 7.93539 2.78024 7.93539 2.59036C7.93539 2.40047 7.78003 2.24512 7.59015 2.24512H6.26962Z" fill="#27AE60"/>
<path d="M3.05459 2.24512C2.86471 2.24512 2.70935 2.40047 2.70935 2.59036C2.70935 2.78024 2.86471 2.9356 3.05459 2.9356H4.37512C4.56501 2.9356 4.72036 2.78024 4.72036 2.59036C4.72036 2.40047 4.56501 2.24512 4.37512 2.24512H3.05459Z" fill="#27AE60"/>
<path d="M6.9774 9.27947L7.61609 11.2646L9.72636 11.2603C9.91624 11.2603 10.0716 11.4156 10.0716 11.6055C10.0716 11.7263 10.0069 11.8342 9.91192 11.8946L8.21594 13.1202L8.87189 15.1269C8.93231 15.3082 8.83306 15.5024 8.65181 15.5628C8.53097 15.6016 8.40582 15.5714 8.3152 15.4938L6.63648 14.2682L4.93186 15.511C4.77651 15.6232 4.56073 15.5887 4.44853 15.4376C4.37517 15.3384 4.36654 15.2132 4.40538 15.1054L5.05701 13.1202L3.34808 11.8817C3.19273 11.7695 3.1582 11.5537 3.27041 11.3984C3.34377 11.2948 3.4646 11.2473 3.58112 11.256L5.66118 11.2603L6.3085 9.24926L6.63648 9.35283L6.3085 9.24494C6.36892 9.06369 6.56311 8.96444 6.74436 9.02054C6.8652 9.05938 6.94719 9.15432 6.97308 9.27084L6.9774 9.27947ZM7.36579 11.6055L7.03782 11.7091L6.64079 10.4749L6.2524 11.6832C6.21788 11.8342 6.07978 11.9507 5.91579 11.9507L4.62115 11.9464L5.65686 12.693C5.78633 12.775 5.85106 12.939 5.79928 13.09L5.39794 14.3243L6.41639 13.5777C6.53722 13.4698 6.71416 13.4612 6.84794 13.5561L7.8966 14.3199L7.49957 13.1073C7.44347 12.9649 7.48663 12.7923 7.61609 12.7016L8.66475 11.9421L7.40032 11.9464C7.24496 11.9594 7.0896 11.8644 7.04213 11.7091L7.37011 11.6012L7.36579 11.6055Z" fill="#27AE60"/>
<path d="M15.6385 7.26832L16.5275 10.0216L19.4448 10.0173C19.6346 10.0173 19.79 10.1726 19.79 10.3625C19.79 10.4833 19.7253 10.5912 19.6303 10.6517L17.2827 12.3519L18.189 15.1268C18.2494 15.308 18.1501 15.5022 17.9689 15.5627C17.848 15.6015 17.7229 15.5713 17.6323 15.4936L15.3019 13.7933L12.9413 15.5152C12.786 15.6274 12.5702 15.5929 12.458 15.4418C12.3846 15.3426 12.376 15.2174 12.4149 15.1095L13.3168 12.3563L10.9519 10.643C10.7965 10.5308 10.762 10.315 10.8742 10.1597C10.9476 10.0561 11.0684 10.0086 11.1849 10.0173L14.072 10.0216L14.9696 7.24242L15.2976 7.34599L14.9696 7.23811C15.03 7.05686 15.2242 6.9576 15.4055 7.0137C15.5263 7.05254 15.6083 7.14748 15.6342 7.264L15.6385 7.26832ZM16.2772 10.3668L15.9492 10.4704L15.3019 8.46802L14.6632 10.4445C14.6287 10.5955 14.4906 10.7121 14.3266 10.7121L12.225 10.7078L13.9123 11.929C14.0418 12.011 14.1065 12.175 14.0547 12.3261L13.3988 14.3284L15.0732 13.1072C15.194 12.9993 15.371 12.9906 15.5047 13.0856L17.205 14.3241L16.5577 12.3433C16.5016 12.2009 16.5448 12.0283 16.6742 11.9377L18.3788 10.7034L16.3074 10.7078C16.1521 10.7207 15.9967 10.6258 15.9492 10.4704L16.2772 10.3625V10.3668Z" fill="#27AE60"/>
</svg>
