<svg width="22" height="22" viewBox="0 0 22 22" fill="none" xmlns="http://www.w3.org/2000/svg">
<path d="M19.7166 19.6096L17.9291 17.8166C18.3499 16.9372 18.4461 15.9373 18.2009 14.9937C17.9556 14.0502 17.3846 13.2238 16.5888 12.6606C15.7931 12.0974 14.8238 11.8337 13.8524 11.9162C12.881 11.9987 11.97 12.4219 11.2806 13.1112C10.5911 13.8005 10.1676 14.7114 10.0849 15.6828C10.0022 16.6542 10.2657 17.6235 10.8287 18.4194C11.3917 19.2153 12.218 19.7865 13.1615 20.032C14.1049 20.2775 15.1048 20.1814 15.9844 19.7609L17.7769 21.5484C17.9043 21.6758 18.0555 21.777 18.2221 21.846C18.3885 21.915 18.567 21.9506 18.7472 21.9507C18.9274 21.9507 19.1059 21.9153 19.2724 21.8464C19.4389 21.7775 19.5903 21.6764 19.7177 21.5491C19.8452 21.4217 19.9464 21.2704 20.0154 21.1039C20.0844 20.9375 20.12 20.759 20.12 20.5788C20.1201 20.3986 20.0847 20.2201 20.0157 20.0536C19.9469 19.8871 19.8458 19.7357 19.7184 19.6082L19.7166 19.6096ZM11.9396 18.3107C11.4909 17.862 11.1854 17.2903 11.0617 16.668C10.9379 16.0456 11.0014 15.4006 11.2443 14.8144C11.4871 14.2281 11.8983 13.7271 12.4259 13.3745C12.9535 13.022 13.5738 12.8339 14.2083 12.8339C14.8429 12.8339 15.4632 13.022 15.9908 13.3745C16.5183 13.7271 16.9296 14.2281 17.1724 14.8144C17.4153 15.4006 17.4788 16.0456 17.3551 16.668C17.2313 17.2903 16.9258 17.862 16.4771 18.3107C15.875 18.9117 15.0591 19.2492 14.2083 19.2492C13.3576 19.2492 12.5417 18.9117 11.9396 18.3107ZM19.0667 20.9003C18.9809 20.9851 18.8651 21.0327 18.7445 21.0327C18.6238 21.0327 18.5081 20.9851 18.4223 20.9003L16.781 19.2627C17.0217 19.0731 17.2393 18.8557 17.4291 18.615L19.0667 20.2586C19.1092 20.3008 19.1429 20.351 19.1659 20.4063C19.1889 20.4616 19.2007 20.5209 19.2007 20.5808C19.2007 20.6407 19.1889 20.7 19.1659 20.7553C19.1429 20.8106 19.1092 20.8608 19.0667 20.903V20.9003Z" fill="#F2994A"/>
<path d="M11.4583 20.167H5.49998C5.13533 20.167 4.78558 20.0221 4.52771 19.7643C4.26985 19.5064 4.12498 19.1567 4.12498 18.792V3.20867C4.12498 2.844 4.26985 2.49426 4.52771 2.2364C4.78558 1.97853 5.13533 1.83367 5.49998 1.83367H13.4658C13.5613 1.83392 13.6566 1.84421 13.75 1.86438V4.58367C13.75 4.94832 13.8949 5.29808 14.1527 5.55593C14.4106 5.81379 14.7603 5.95867 15.125 5.95867H17.8397C17.8623 6.05653 17.8742 6.15658 17.875 6.25705V12.3753C17.875 12.4969 17.9233 12.6135 18.0092 12.6994C18.0952 12.7854 18.2118 12.8337 18.3333 12.8337C18.4549 12.8337 18.5715 12.7854 18.6574 12.6994C18.7433 12.6135 18.7916 12.4969 18.7916 12.3753V6.25705C18.7923 5.95693 18.7336 5.65966 18.6191 5.38227C18.5046 5.10484 18.3365 4.85276 18.1243 4.64051L15.0901 1.59213C14.8778 1.37744 14.6247 1.20718 14.3459 1.09127C14.067 0.975361 13.7678 0.916122 13.4658 0.917002H5.49998C4.89241 0.917731 4.30994 1.15941 3.88033 1.58902C3.45072 2.01863 3.20904 2.60111 3.20831 3.20867V18.792C3.20904 19.3996 3.45072 19.982 3.88033 20.4117C4.30994 20.8413 4.89241 21.0829 5.49998 21.0837H11.4583C11.5799 21.0837 11.6965 21.0354 11.7824 20.9494C11.8683 20.8635 11.9166 20.7469 11.9166 20.6253C11.9166 20.5038 11.8683 20.3872 11.7824 20.3012C11.6965 20.2153 11.5799 20.167 11.4583 20.167ZM17.2306 5.04201H15.125C15.0034 5.04201 14.8868 4.9937 14.8009 4.90776C14.715 4.82182 14.6666 4.70522 14.6666 4.58367V2.46617L17.2306 5.04201Z" fill="#F2994A"/>
<path d="M6.41665 5.95866H11.4583C11.5799 5.95866 11.6965 5.91035 11.7824 5.82441C11.8683 5.73848 11.9166 5.62188 11.9166 5.50033C11.9166 5.37878 11.8683 5.26218 11.7824 5.17624C11.6965 5.0903 11.5799 5.04199 11.4583 5.04199H6.41665C6.2951 5.04199 6.1785 5.0903 6.09256 5.17624C6.00662 5.26218 5.95831 5.37878 5.95831 5.50033C5.95831 5.62188 6.00662 5.73848 6.09256 5.82441C6.1785 5.91035 6.2951 5.95866 6.41665 5.95866Z" fill="#F2994A"/>
<path d="M15.5833 7.79199H7.79165C7.6701 7.79199 7.5535 7.8403 7.46756 7.92624C7.38162 8.01218 7.33331 8.12878 7.33331 8.25033C7.33331 8.37188 7.38162 8.48848 7.46756 8.57441C7.5535 8.66035 7.6701 8.70866 7.79165 8.70866H15.5833C15.7049 8.70866 15.8215 8.66035 15.9074 8.57441C15.9933 8.48848 16.0416 8.37188 16.0416 8.25033C16.0416 8.12878 15.9933 8.01218 15.9074 7.92624C15.8215 7.8403 15.7049 7.79199 15.5833 7.79199Z" fill="#F2994A"/>
<path d="M16.0416 10.5413C16.0416 10.4198 15.9933 10.3032 15.9074 10.2173C15.8215 10.1313 15.7049 10.083 15.5833 10.083H6.41665C6.2951 10.083 6.1785 10.1313 6.09256 10.2173C6.00662 10.3032 5.95831 10.4198 5.95831 10.5413C5.95831 10.6629 6.00662 10.7795 6.09256 10.8654C6.1785 10.9514 6.2951 10.9997 6.41665 10.9997H15.5833C15.7049 10.9997 15.8215 10.9514 15.9074 10.8654C15.9933 10.7795 16.0416 10.6629 16.0416 10.5413Z" fill="#F2994A"/>
<path d="M9.62498 12.8333C9.62498 12.7118 9.57667 12.5952 9.49073 12.5092C9.4048 12.4233 9.2882 12.375 9.16665 12.375H6.41665C6.2951 12.375 6.1785 12.4233 6.09256 12.5092C6.00662 12.5952 5.95831 12.7118 5.95831 12.8333C5.95831 12.9549 6.00662 13.0715 6.09256 13.1574C6.1785 13.2434 6.2951 13.2917 6.41665 13.2917H9.16665C9.2882 13.2917 9.4048 13.2434 9.49073 13.1574C9.57667 13.0715 9.62498 12.9549 9.62498 12.8333Z" fill="#F2994A"/>
<path d="M6.41665 15.5837H8.24998C8.37153 15.5837 8.48813 15.5353 8.57407 15.4494C8.66001 15.3635 8.70831 15.2469 8.70831 15.1253C8.70831 15.0038 8.66001 14.8872 8.57407 14.8012C8.48813 14.7153 8.37153 14.667 8.24998 14.667H6.41665C6.2951 14.667 6.1785 14.7153 6.09256 14.8012C6.00662 14.8872 5.95831 15.0038 5.95831 15.1253C5.95831 15.2469 6.00662 15.3635 6.09256 15.4494C6.1785 15.5353 6.2951 15.5837 6.41665 15.5837Z" fill="#F2994A"/>
<path d="M6.41665 17.8747H8.70831C8.82986 17.8747 8.94646 17.8264 9.0324 17.7404C9.11834 17.6545 9.16664 17.5379 9.16664 17.4163C9.16664 17.2948 9.11834 17.1782 9.0324 17.0923C8.94646 17.0063 8.82986 16.958 8.70831 16.958H6.41665C6.2951 16.958 6.1785 17.0063 6.09256 17.0923C6.00662 17.1782 5.95831 17.2948 5.95831 17.4163C5.95831 17.5379 6.00662 17.6545 6.09256 17.7404C6.1785 17.8264 6.2951 17.8747 6.41665 17.8747Z" fill="#F2994A"/>
<path d="M14.2084 17.4163C13.8437 17.4163 13.4939 17.2715 13.2361 17.0136C12.9782 16.7557 12.8334 16.406 12.8334 16.0413C12.8334 15.9198 12.785 15.8032 12.6991 15.7173C12.6132 15.6313 12.4966 15.583 12.375 15.583C12.2535 15.583 12.1369 15.6313 12.0509 15.7173C11.965 15.8032 11.9167 15.9198 11.9167 16.0413C11.9174 16.6489 12.1591 17.2314 12.5887 17.661C13.0183 18.0906 13.6008 18.3323 14.2084 18.333C14.3299 18.333 14.4465 18.2847 14.5324 18.1988C14.6184 18.1128 14.6667 17.9962 14.6667 17.8747C14.6667 17.7531 14.6184 17.6365 14.5324 17.5506C14.4465 17.4646 14.3299 17.4163 14.2084 17.4163Z" fill="#F2994A"/>
</svg>
