<svg width="22" height="21" viewBox="0 0 22 21" fill="none" xmlns="http://www.w3.org/2000/svg">
<path fill-rule="evenodd" clip-rule="evenodd" d="M11 1.75C7.45618 1.75 4.58333 4.49226 4.58333 7.875C4.58333 9.4913 5.23796 10.9596 6.30966 12.0549C7.48202 13.2529 9.14889 14 11 14C12.8511 14 14.518 13.2529 15.6903 12.0549C16.7621 10.9596 17.4167 9.4913 17.4167 7.875C17.4167 4.49226 14.5438 1.75 11 1.75ZM2.75 7.875C2.75 3.52576 6.44365 0 11 0C15.5564 0 19.25 3.52576 19.25 7.875C19.25 9.77961 18.5406 11.5277 17.3617 12.8893L18.799 18.6518C19.1494 20.0568 17.6668 21.2392 16.2807 20.6604L11 18.4551L5.71929 20.6604C4.33316 21.2392 2.85054 20.0568 3.20097 18.6518L4.63832 12.8893C3.45936 11.5277 2.75 9.77961 2.75 7.875ZM6.17942 14.2664L4.98446 19.0571L10.2652 16.8518C10.7336 16.6562 11.2664 16.6562 11.7348 16.8518L17.0155 19.0571L15.8206 14.2664C14.4648 15.1995 12.7994 15.75 11 15.75C9.20058 15.75 7.53515 15.1995 6.17942 14.2664ZM15.3148 5.50628C15.6728 5.84799 15.6728 6.40201 15.3148 6.74372L11.6482 10.2437C11.2902 10.5854 10.7098 10.5854 10.3518 10.2437L8.51848 8.49372C8.16051 8.15201 8.16051 7.59799 8.51848 7.25628C8.87647 6.91457 9.45688 6.91457 9.81484 7.25628L11 8.38757L14.0185 5.50628C14.3765 5.16457 14.9569 5.16457 15.3148 5.50628Z" fill="#6FCF97"/>
</svg>
