<svg width="22" height="20" viewBox="0 0 22 20" fill="none" xmlns="http://www.w3.org/2000/svg">
<path d="M21.2333 0.546875H0.668457C0.437156 0.546875 0.249939 0.734096 0.249939 0.965402V18.9353C0.249939 19.1663 0.437156 19.3538 0.668457 19.3538H21.2333C21.4644 19.3538 21.6519 19.1663 21.6519 18.9353V0.965402C21.6519 0.734096 21.4644 0.546875 21.2333 0.546875ZM20.8148 1.38393V5.44727H1.08698V1.38393H20.8148ZM1.08698 18.5167V6.28432H20.8148V18.5167H1.08698Z" fill="#2F80ED"/>
<path d="M2.78339 3.7228H4.32744C4.55874 3.7228 4.74596 3.53557 4.74596 3.30427C4.74596 3.07296 4.55874 2.88574 4.32744 2.88574H2.78339C2.55209 2.88574 2.36487 3.07296 2.36487 3.30427C2.36487 3.53557 2.55209 3.7228 2.78339 3.7228Z" fill="#2F80ED"/>
<path d="M6.09271 3.7228H7.63705C7.86835 3.7228 8.05557 3.53557 8.05557 3.30427C8.05557 3.07296 7.86835 2.88574 7.63705 2.88574H6.09271C5.86141 2.88574 5.67419 3.07296 5.67419 3.30427C5.67419 3.53557 5.86141 3.7228 6.09271 3.7228Z" fill="#2F80ED"/>
<path d="M14.4584 12.0289L9.06171 8.32743C8.93337 8.23926 8.76707 8.22977 8.6298 8.30232C8.49253 8.37458 8.40631 8.51744 8.40631 8.67257V15.6516C8.40631 15.8029 8.48778 15.9424 8.61976 16.0166C8.68365 16.0523 8.75424 16.0702 8.82483 16.0702C8.90016 16.0702 8.9755 16.0498 9.04218 16.0093L14.4386 12.732C14.5602 12.6581 14.6358 12.528 14.6397 12.386C14.6439 12.2437 14.5756 12.1092 14.4584 12.0289ZM9.24363 14.9078V9.46722L13.4506 12.3528L9.24363 14.9078Z" fill="#2F80ED"/>
</svg>
