<svg width="16" height="22" viewBox="0 0 16 22" fill="none" xmlns="http://www.w3.org/2000/svg">
<path d="M10.6667 0V5.5H16L10.6667 0ZM9.33333 5.5V0H2C0.895417 0 0 0.923398 0 2.0625V19.9375C0 21.0762 0.895417 22 2 22H14C15.1046 22 16 21.0766 16 19.9375V6.875H10.7042C9.92917 6.875 9.33333 6.26055 9.33333 5.5V5.5ZM4 1.375H6.66667V2.75H4V1.375ZM4 4.125H6.66667V5.5H4V4.125ZM4 6.875H6.66667V8.25H4V6.875ZM5.34583 17.8363C3.65583 17.8363 2.3975 16.2701 2.72792 14.5943L4 9.625H6.66667L7.95583 14.648C8.27917 16.3152 7.02083 17.8363 5.34583 17.8363V17.8363ZM6 14.4375H4.66667C4.3 14.4375 4 14.7469 4 15.125C4 15.5031 4.2985 15.8125 4.66667 15.8125H6C6.36667 15.8125 6.66667 15.5031 6.66667 15.125C6.66667 14.7469 6.36667 14.4375 6 14.4375Z" fill="#556080"/>
</svg>
