<svg width="25" height="19" viewBox="0 0 25 19" fill="none" xmlns="http://www.w3.org/2000/svg">
<path d="M22.9166 0H4.16662C3.01763 0 2.08328 0.934346 2.08328 2.08333V14.5833C2.08328 15.7323 3.01763 16.6667 4.16662 16.6667H22.9166C24.0656 16.6667 24.9999 15.7323 24.9999 14.5833V2.08333C24.9999 0.934346 24.0656 0 22.9166 0Z" fill="#303C42"/>
<path d="M4.1667 1.04199H22.9167C23.4909 1.04199 23.9584 1.50942 23.9584 2.08366V12.8055L16.5141 5.36125C16.3107 5.1578 15.9811 5.1578 15.7776 5.36125L10.1563 10.9826L8.18078 9.00708C7.97733 8.80363 7.64774 8.80363 7.44429 9.00708L3.12503 13.3263V2.08366C3.12503 1.50942 3.59246 1.04199 4.1667 1.04199Z" fill="#4FC3F7"/>
<path d="M22.9166 15.6252H4.16665C3.65599 15.6252 3.2494 15.2486 3.16129 14.7629L7.81248 10.1117L11.0901 13.3892C11.2935 13.5927 11.6231 13.5927 11.8266 13.3892C12.03 13.1858 12.03 12.8562 11.8266 12.6528L10.8927 11.7189L16.1458 6.46582L23.9583 14.2783V14.5835C23.9583 15.1577 23.4909 15.6252 22.9166 15.6252Z" fill="#7CB342"/>
<path opacity="0.1" d="M23.4375 15.465V13.7575L16.1458 6.46582L10.8927 11.7189L11.8266 12.6528C12.03 12.8562 12.03 13.1858 11.8266 13.3892C11.6231 13.5927 11.2935 13.5927 11.0901 13.3892L7.81248 10.1117L3.16129 14.7629C3.2494 15.2486 3.65599 15.6252 4.16665 15.6252H22.9167C23.1104 15.6252 23.2819 15.5576 23.4375 15.465Z" fill="black"/>
<path opacity="0.1" d="M23.4375 4.16667C23.4375 2.73081 22.2692 1.5625 20.8334 1.5625H3.28518C3.19261 1.71808 3.12503 1.88955 3.12503 2.08333V13.326L7.44428 9.00675C7.64774 8.8033 7.97733 8.8033 8.18078 9.00675L10.1563 10.9823L15.7776 5.36092C15.9811 5.15747 16.3107 5.15747 16.5141 5.36092L23.4375 12.2843V4.16667Z" fill="black"/>
<path d="M20.8333 2.08301H2.08333C0.934346 2.08301 0 3.01735 0 4.16634V16.6663C0 17.8153 0.934346 18.7497 2.08333 18.7497H20.8333C21.9823 18.7497 22.9167 17.8153 22.9167 16.6663V4.16634C22.9167 3.01735 21.9823 2.08301 20.8333 2.08301Z" fill="#303C42"/>
<path d="M2.08335 3.125H20.8334C21.4076 3.125 21.875 3.59243 21.875 4.16667V14.8885L14.4308 7.44425C14.2273 7.2408 13.8977 7.2408 13.6943 7.44425L8.07294 13.0656L6.09743 11.0901C5.89398 10.8866 5.56439 10.8866 5.36094 11.0901L1.04169 15.4093V4.16667C1.04169 3.59243 1.50911 3.125 2.08335 3.125Z" fill="#4FC3F7"/>
<path d="M20.8334 17.7082H2.08337C1.57271 17.7082 1.16612 17.3316 1.078 16.8459L5.7292 12.1947L9.00679 15.4722C9.21024 15.6757 9.53983 15.6757 9.74328 15.4722C9.94673 15.2688 9.94673 14.9392 9.74328 14.7358L8.80944 13.8019L14.0625 8.54883L21.875 16.3613V16.6665C21.875 17.2407 21.4076 17.7082 20.8334 17.7082Z" fill="#7CB342"/>
<path opacity="0.1" d="M20.8334 16.1453H2.08337C1.992 16.1453 1.90923 16.1204 1.82575 16.0978L1.078 16.8455C1.16612 17.3313 1.57271 17.7078 2.08337 17.7078H20.8334C21.4076 17.7078 21.875 17.2404 21.875 16.6662V16.361L21.4408 15.9268C21.2677 16.0549 21.0647 16.1453 20.8334 16.1453Z" fill="black"/>
<path d="M7.81248 9.37533C9.25072 9.37533 10.4166 8.2094 10.4166 6.77116C10.4166 5.33292 9.25072 4.16699 7.81248 4.16699C6.37424 4.16699 5.20831 5.33292 5.20831 6.77116C5.20831 8.2094 6.37424 9.37533 7.81248 9.37533Z" fill="#303C42"/>
<path d="M7.81247 8.33301C8.67541 8.33301 9.37497 7.63345 9.37497 6.77051C9.37497 5.90756 8.67541 5.20801 7.81247 5.20801C6.94952 5.20801 6.24997 5.90756 6.24997 6.77051C6.24997 7.63345 6.94952 8.33301 7.81247 8.33301Z" fill="#FFCA28"/>
<path d="M22.9167 0H4.16667C3.01768 0 2.08333 0.934346 2.08333 2.08333C0.934346 2.08333 0 3.01768 0 4.16667V16.6667C0 17.8157 0.934346 18.75 2.08333 18.75H20.8333C21.9823 18.75 22.9167 17.8157 22.9167 16.6667C24.0657 16.6667 25 15.7323 25 14.5833V2.08333C25 0.934346 24.0657 0 22.9167 0Z" fill="url(#paint0_linear_931_3)"/>
<defs>
<linearGradient id="paint0_linear_931_3" x1="0.0607961" y1="3.5745" x2="24.9392" y2="15.1755" gradientUnits="userSpaceOnUse">
<stop stop-color="white" stop-opacity="0.2"/>
<stop offset="1" stop-color="white" stop-opacity="0"/>
</linearGradient>
</defs>
</svg>
