<svg width="21" height="22" viewBox="0 0 21 22" fill="none" xmlns="http://www.w3.org/2000/svg">
<path opacity="0.8" d="M20.2 1H1V21H20.2V1Z" fill="#424A60" stroke="white" stroke-width="0.8" stroke-miterlimit="10"/>
<path d="M5.80001 7.85442C6.80937 7.85442 7.62761 7.03617 7.62761 6.02682C7.62761 5.01746 6.80937 4.19922 5.80001 4.19922C4.79066 4.19922 3.97241 5.01746 3.97241 6.02682C3.97241 7.03617 4.79066 7.85442 5.80001 7.85442Z" fill="#EFCE4A"/>
<path d="M20.2 17H1V21H20.2V17Z" fill="white"/>
<path d="M19.8001 13.445L19.4001 13.0006L14.6001 8.60059L10.4001 13.2006L12.5933 15.3938L14.2001 17.0006H19.8001V13.445Z" fill="#1A9172"/>
<path d="M12.5932 15.3932L8.20679 11.0068L1.39999 17H14.2L12.5932 15.3932Z" fill="#25AE88"/>
</svg>
