<svg width="17" height="22" viewBox="0 0 17 22" fill="none" xmlns="http://www.w3.org/2000/svg">
<path d="M11.9762 0H0.57475C0.257321 0 0 0.257321 0 0.756643V21.6071C0 21.7427 0.257321 22 0.57475 22H16.3181C16.6355 22 16.8929 21.7427 16.8929 21.6071V5.0985C16.8929 4.82507 16.8563 4.73707 16.7919 4.67225L12.2206 0.100964C12.1558 0.0365357 12.0678 0 11.9762 0Z" fill="white"/>
<path d="M12.1786 0.0595703V4.71453H16.8336L12.1786 0.0595703Z" fill="#F4ECB5"/>
<path d="M5.11265 13.0916C4.97593 13.0916 4.84472 13.0472 4.73275 12.9635C4.32379 12.6567 4.26879 12.3153 4.29472 12.0827C4.36622 11.4432 5.15704 10.7737 6.64597 10.0917C7.23682 8.79687 7.799 7.20147 8.13411 5.86851C7.74204 5.01522 7.36097 3.90815 7.63872 3.25876C7.73615 3.0313 7.85754 2.85687 8.08422 2.78144C8.17379 2.75158 8.40007 2.71387 8.48336 2.71387C8.68136 2.71387 8.85539 2.96883 8.97875 3.12597C9.09464 3.27369 9.35747 3.5868 8.83222 5.79819C9.36179 6.8919 10.1121 8.00605 10.8311 8.76897C11.3461 8.67587 11.7893 8.62833 12.1503 8.62833C12.7655 8.62833 13.1383 8.77172 13.2904 9.06715C13.4161 9.31151 13.3646 9.59712 13.1371 9.91572C12.9183 10.2218 12.6166 10.3836 12.265 10.3836C11.7873 10.3836 11.231 10.0819 10.6107 9.48594C9.49614 9.7189 8.19461 10.1345 7.14254 10.5946C6.81411 11.2915 6.49943 11.8529 6.20636 12.2646C5.80368 12.8284 5.4564 13.0916 5.11265 13.0916ZM6.15843 11.0778C5.3189 11.5496 4.97672 11.9374 4.95197 12.1558C4.94804 12.1919 4.93743 12.287 5.12129 12.4277C5.17982 12.4092 5.52161 12.2532 6.15843 11.0778ZM11.5158 9.33272C11.836 9.57905 11.9142 9.70358 12.1236 9.70358C12.2155 9.70358 12.4775 9.69965 12.5989 9.53033C12.6575 9.44822 12.6803 9.39558 12.6893 9.3673C12.641 9.34176 12.5769 9.2899 12.2277 9.2899C12.0293 9.29029 11.7798 9.29894 11.5158 9.33272ZM8.58118 6.74694C8.30029 7.71887 7.92943 8.76819 7.53068 9.71851C8.35175 9.3999 9.24432 9.12176 10.0827 8.92494C9.55232 8.30894 9.02236 7.53972 8.58118 6.74694ZM8.34272 3.42258C8.30422 3.43555 7.82022 4.11283 8.38043 4.68601C8.75325 3.85512 8.35961 3.41708 8.34272 3.42258Z" fill="#CC4B4C"/>
<path d="M16.3181 21.9999H0.57475C0.257321 21.9999 0 21.7425 0 21.4251V15.3213H16.8929V21.4251C16.8929 21.7425 16.6355 21.9999 16.3181 21.9999Z" fill="#CC4B4C"/>
<path d="M4.27627 20.8207H3.63159V16.8623H4.77009C4.93823 16.8623 5.10481 16.889 5.26941 16.9428C5.43402 16.9967 5.58173 17.0772 5.71256 17.1844C5.84338 17.2917 5.94906 17.4217 6.02959 17.5738C6.11013 17.7258 6.15059 17.8967 6.15059 18.0868C6.15059 18.2876 6.11641 18.4691 6.04845 18.6321C5.98048 18.7952 5.88541 18.9323 5.76363 19.0431C5.64184 19.1538 5.49491 19.2399 5.32323 19.3008C5.15156 19.3617 4.96141 19.3919 4.75398 19.3919H4.27588V20.8207H4.27627ZM4.27627 17.351V18.9193H4.86713C4.9457 18.9193 5.02348 18.9059 5.10088 18.8788C5.17788 18.8521 5.24859 18.8081 5.31302 18.7472C5.37745 18.6863 5.42931 18.6015 5.46859 18.4923C5.50788 18.3831 5.52752 18.2479 5.52752 18.0868C5.52752 18.0224 5.51848 17.9478 5.50081 17.8641C5.48273 17.78 5.4462 17.6995 5.39081 17.6225C5.33502 17.5455 5.25723 17.4811 5.15706 17.4292C5.05688 17.3773 4.92409 17.3514 4.75948 17.3514H4.27627V17.351Z" fill="white"/>
<path d="M10.1039 18.7315C10.1039 19.0572 10.0689 19.3357 9.99902 19.5667C9.92909 19.7977 9.8407 19.991 9.73306 20.147C9.62541 20.3029 9.50481 20.4255 9.37045 20.5151C9.23609 20.6047 9.10645 20.6714 8.98113 20.7166C8.85581 20.7614 8.74109 20.7901 8.63738 20.8027C8.53366 20.8144 8.45666 20.8207 8.40638 20.8207H6.90802V16.8623H8.10034C8.43348 16.8623 8.72616 16.9153 8.97838 17.0206C9.23059 17.1259 9.44038 17.2669 9.60695 17.4422C9.77352 17.6174 9.89766 17.8173 9.98016 18.0409C10.0627 18.2648 10.1039 18.495 10.1039 18.7315ZM8.19188 20.3481C8.62873 20.3481 8.94381 20.2087 9.13709 19.9293C9.33038 19.65 9.42702 19.2454 9.42702 18.7154C9.42702 18.5508 9.40738 18.3878 9.36809 18.2267C9.32841 18.0656 9.25259 17.9199 9.13984 17.7891C9.02709 17.6582 8.87388 17.5526 8.68059 17.472C8.48731 17.3915 8.23666 17.351 7.92866 17.351H7.5527V20.3481H8.19188V20.3481Z" fill="white"/>
<path d="M11.6938 17.351V18.5972H13.3481V19.0376H11.6938V20.8207H11.0385V16.8623H13.5143V17.351H11.6938Z" fill="white"/>
</svg>
