<svg width="13" height="18" viewBox="0 0 13 18" fill="none" xmlns="http://www.w3.org/2000/svg">
<path d="M1 16.6186C1.00012 16.6902 1.02034 16.7602 1.05834 16.8209C1.09634 16.8815 1.1506 16.9302 1.21494 16.9615C1.27928 16.9928 1.35111 17.0054 1.42226 16.9979C1.49341 16.9903 1.56101 16.963 1.61738 16.9189L11.3151 9.30028C11.3605 9.26453 11.3973 9.21893 11.4225 9.16692C11.4478 9.1149 11.4609 9.05783 11.4609 9C11.4609 8.94217 11.4478 8.8851 11.4225 8.83309C11.3973 8.78107 11.3605 8.73547 11.3151 8.69972L1.61738 1.08109C1.56101 1.03702 1.49341 1.00966 1.42226 1.00212C1.35111 0.994591 1.27928 1.00719 1.21494 1.03848C1.1506 1.06978 1.09634 1.11851 1.05834 1.17913C1.02034 1.23975 1.00012 1.30983 1 1.38137V16.6186V16.6186Z" stroke="white" stroke-width="1.4" stroke-linecap="round" stroke-linejoin="round"/>
</svg>
